<svg width="191" height="140" viewBox="0 0 191 140" fill="none" xmlns="http://www.w3.org/2000/svg">
<path d="M85.5614 129.5H33.3526C30.3353 129.5 27.6862 127.493 26.869 124.589L4.28414 44.3187C3.47283 41.4352 4.66337 38.3623 7.20567 36.7781L57.938 5.16525C60.1183 3.80661 62.8817 3.80661 65.062 5.16525L115.527 36.6116C118.161 38.2526 119.332 41.4804 118.364 44.4286L91.9607 124.865C91.053 127.631 88.4718 129.5 85.5614 129.5Z" stroke="white" stroke-width="5"/>
<path d="M53.24 119.04C50.52 119.04 48.3067 118.32 46.6 116.88C44.8933 115.44 44.04 113.493 44.04 111.04C44.04 108.533 45.0533 105.76 47.08 102.72C48.7333 100.32 51.16 97.76 54.36 95.04C57.56 92.3733 61.4533 89.8933 66.04 87.6C70.6267 85.2533 75.7733 83.4667 81.48 82.24C81.5333 81.7067 81.56 81.1733 81.56 80.64C81.56 80.1067 81.56 79.5733 81.56 79.04C81.56 74.4533 81.16 69.7867 80.36 65.04C79.56 60.2933 78.5467 55.6533 77.32 51.12C76.3067 56.2933 74.9467 61.1733 73.24 65.76C71.5333 70.3467 69.6933 74.4 67.72 77.92C65.7467 81.3867 63.7467 84.1067 61.72 86.08C59.7467 88.0533 57.9067 89.04 56.2 89.04C54.76 89.04 53.5067 88.24 52.44 86.64C51.4267 85.04 50.7067 82.4533 50.28 78.88C50.2267 78.6133 50.2 78.2933 50.2 77.92C50.2 77.4933 50.2 77.0667 50.2 76.64C50.2 74.88 50.3067 72.6667 50.52 70C50.7333 67.28 51 64.2933 51.32 61.04C51.64 57.7867 51.9333 54.4267 52.2 50.96C52.52 47.4933 52.7867 44.1333 53 40.88C53.2133 37.5733 53.32 34.5333 53.32 31.76C53.32 28.4533 53.1067 25.76 52.68 23.68C52.2533 21.5467 51.48 20.48 50.36 20.48C49.6133 20.48 48.92 20.88 48.28 21.68C47.64 22.4267 47.08 23.28 46.6 24.24C46.0667 25.1467 45.6667 25.8933 45.4 26.48C45.08 27.0667 44.8933 27.1733 44.84 26.8C44.7867 26.5867 44.76 26.4 44.76 26.24C44.7067 26.0267 44.68 25.8133 44.68 25.6C44.68 24.5867 44.92 23.52 45.4 22.4C45.88 21.28 46.52 20.32 47.32 19.52C48.12 18.72 49.0267 18.32 50.04 18.32C50.4133 18.32 50.84 18.4 51.32 18.56C53.5067 19.4133 55 21.3067 55.8 24.24C56.6533 27.1733 57.08 30.6667 57.08 34.72C57.08 37.8133 56.92 41.0933 56.6 44.56C56.28 48.0267 55.9067 51.4933 55.48 54.96C55.0533 58.4267 54.68 61.7067 54.36 64.8C54.04 67.8933 53.88 70.64 53.88 73.04C53.88 73.6267 53.88 74.2133 53.88 74.8C53.9333 75.3333 53.9867 75.84 54.04 76.32C54.4667 79.68 55.0533 82.0533 55.8 83.44C56.5467 84.8267 57.4 85.52 58.36 85.52C59.4267 85.52 60.52 84.9333 61.64 83.76C62.8133 82.5867 63.96 81.12 65.08 79.36C66.2 77.6 67.2133 75.84 68.12 74.08C69.24 72 70.3067 69.4133 71.32 66.32C72.3333 63.1733 73.2667 59.9467 74.12 56.64C75.0267 53.28 75.7467 50.24 76.28 47.52L75.56 45.2C75.4533 44.4 75.64 43.8133 76.12 43.44C76.6 43.0133 77.1067 42.8 77.64 42.8C78.7067 42.8 79.4 43.2267 79.72 44.08C80.52 46 81.2133 48.5867 81.8 51.84C82.44 55.0933 82.92 58.64 83.24 62.48C83.56 66.2667 83.72 70 83.72 73.68C83.72 75.0667 83.6933 76.4533 83.64 77.84C83.5867 79.1733 83.5067 80.4533 83.4 81.68C85.1067 81.4133 86.84 81.1733 88.6 80.96C90.4133 80.6933 92.28 80.56 94.2 80.56H94.6C95.24 80.56 95.56 80.6667 95.56 80.88C95.56 81.04 95.3733 81.2267 95 81.44C94.6267 81.6 94.0933 81.7067 93.4 81.76C91.7467 81.8667 90.04 82.0533 88.28 82.32C86.5733 82.5333 84.8667 82.8533 83.16 83.28C82.2 88.6667 80.84 93.36 79.08 97.36C77.32 101.36 75.3467 104.72 73.16 107.44C70.9733 110.16 68.76 112.347 66.52 114C64.12 115.76 61.7733 117.04 59.48 117.84C57.1867 118.64 55.1067 119.04 53.24 119.04ZM52.36 117.84C53.48 117.84 54.76 117.627 56.2 117.2C57.64 116.773 59.1867 116.053 60.84 115.04C64.5733 112.853 67.88 110.133 70.76 106.88C73.64 103.68 75.9867 100.107 77.8 96.16C79.6133 92.2667 80.7867 88.1867 81.32 83.92C77.5867 84.88 73.7467 86.32 69.8 88.24C65.9067 90.16 62.2533 92.4 58.84 94.96C55.4267 97.52 52.5733 100.32 50.28 103.36C49.0533 104.96 48.1467 106.507 47.56 108C46.9733 109.547 46.68 110.96 46.68 112.24C46.68 113.893 47.1867 115.227 48.2 116.24C49.16 117.307 50.5467 117.84 52.36 117.84Z" fill="white"/>
<path d="M122.886 92.4153C122.886 93.031 122.855 94.247 122.794 96.0632C122.732 97.8487 122.701 99.6496 122.701 101.466C122.701 104.975 122.778 108.562 122.932 112.225C123.086 115.858 123.209 118.243 123.302 119.382C123.302 119.567 123.317 119.767 123.348 119.983C123.379 120.198 123.41 120.398 123.44 120.583C123.563 121.445 123.625 121.968 123.625 122.153C123.625 122.461 123.394 122.753 122.932 123.03C122.501 123.307 122.163 123.446 121.916 123.446C121.578 123.446 121.347 123.323 121.224 123.076C121.131 122.799 121.085 122.43 121.085 121.968C121.085 120.275 121.131 118.505 121.224 116.658L121.27 114.072C121.27 113.21 121.255 112.086 121.224 110.701C121.193 109.285 121.147 108.1 121.085 107.146C119.515 112.194 117.73 116.381 115.729 119.706C113.759 123 111.619 124.646 109.31 124.646C108.264 124.646 107.371 124.154 106.632 123.169C105.924 122.184 105.57 120.768 105.57 118.921C105.57 116.489 106.386 113.841 108.017 110.978C109.68 108.115 111.558 105.653 113.651 103.59C115.775 101.527 117.345 100.496 118.361 100.496C119.346 100.496 119.839 100.819 119.839 101.466C119.839 101.897 119.685 102.405 119.377 102.99C119.1 103.544 118.776 104.052 118.407 104.514C118.068 104.975 117.868 105.206 117.807 105.206C117.745 105.206 117.668 105.191 117.576 105.16C117.514 105.098 117.484 105.037 117.484 104.975C117.484 104.821 117.56 104.56 117.714 104.19C117.868 103.821 117.945 103.575 117.945 103.451C117.945 103.298 117.93 103.19 117.899 103.128C117.868 103.067 117.776 103.036 117.622 103.036C116.976 103.036 115.806 103.929 114.113 105.714C112.45 107.469 110.957 109.562 109.634 111.994C108.31 114.426 107.648 116.689 107.648 118.782C107.648 119.521 107.802 120.214 108.11 120.86C108.418 121.506 108.925 121.83 109.634 121.83C111.881 121.83 113.959 119.936 115.867 116.15C117.807 112.333 119.485 108.008 120.901 103.174L120.808 99.2956C120.716 95.8785 120.67 94.0623 120.67 93.8468C120.67 91.9997 120.747 90.676 120.901 89.8756C120.962 89.5677 121.024 89.3523 121.085 89.2291C121.178 89.106 121.347 89.0444 121.593 89.0444C121.901 89.0444 122.209 89.1522 122.517 89.3676C122.825 89.5524 122.979 89.814 122.979 90.1526L122.886 92.4153ZM146.049 112.918C146.049 113.472 145.633 114.688 144.802 116.566C144.002 118.443 142.77 120.183 141.108 121.784C139.476 123.384 137.46 124.185 135.059 124.185C133.089 124.185 131.442 123.569 130.118 122.338C128.794 121.106 128.132 119.213 128.132 116.658C128.132 114.257 128.686 111.886 129.795 109.547C130.903 107.176 132.35 105.252 134.135 103.775C135.921 102.266 137.768 101.512 139.676 101.512C140.815 101.512 141.77 101.774 142.539 102.297C143.34 102.79 143.74 103.513 143.74 104.467C143.74 105.545 143.124 106.591 141.893 107.607C140.692 108.623 139.122 109.516 137.183 110.286C135.243 111.055 133.242 111.609 131.18 111.948C130.81 113.364 130.626 114.749 130.626 116.104C130.626 117.889 131.041 119.275 131.873 120.26C132.735 121.245 133.95 121.737 135.52 121.737C137.891 121.737 139.815 120.891 141.293 119.198C142.77 117.505 144.002 115.596 144.987 113.472C145.048 113.349 145.156 113.118 145.31 112.779C145.464 112.41 145.602 112.225 145.725 112.225C145.941 112.225 146.049 112.456 146.049 112.918ZM139.122 103.405C137.952 103.405 136.829 103.79 135.751 104.56C134.674 105.329 133.766 106.253 133.027 107.33C132.319 108.408 131.857 109.362 131.642 110.193C133.058 110.039 134.551 109.639 136.121 108.993C137.691 108.346 138.999 107.638 140.046 106.869C141.123 106.099 141.662 105.468 141.662 104.975C141.662 104.483 141.4 104.098 140.877 103.821C140.384 103.544 139.8 103.405 139.122 103.405ZM170.978 101.835C169.377 103.652 167.884 106.253 166.499 109.639C165.113 113.025 164.021 116.689 163.22 120.629C163.128 121.091 162.974 122.014 162.758 123.4L162.528 125.016C162.435 125.508 162.22 125.893 161.881 126.17C161.573 126.447 161.019 126.586 160.219 126.586C160.065 126.586 159.542 125.662 158.649 123.815C157.756 121.937 156.817 119.921 155.832 117.766L153.846 113.426C152.646 110.809 151.645 108.762 150.845 107.284C150.045 105.806 149.46 105.068 149.09 105.068C148.967 105.068 148.859 105.145 148.767 105.299C148.705 105.452 148.628 105.529 148.536 105.529C148.382 105.529 148.244 105.468 148.121 105.345C148.028 105.191 147.982 105.037 147.982 104.883C147.982 104.483 148.197 103.959 148.628 103.313C149.09 102.666 149.537 102.343 149.968 102.343C150.275 102.343 150.506 102.405 150.66 102.528C150.814 102.651 150.953 102.79 151.076 102.944C151.199 103.097 151.291 103.221 151.353 103.313C152.092 104.236 153.369 106.668 155.186 110.609C155.832 111.994 157.433 115.611 159.988 121.46L161.05 123.908C161.05 123.107 161.204 121.814 161.512 120.029C162.189 116.396 163.205 112.795 164.559 109.224C165.914 105.653 167.499 102.666 169.316 100.265C169.685 99.7727 169.977 99.4341 170.193 99.2494C170.439 99.0339 170.747 98.9262 171.116 98.9262C171.27 98.9262 171.517 99.1724 171.855 99.665C172.194 100.127 172.363 100.435 172.363 100.589C172.363 100.742 172.148 100.958 171.717 101.235C171.317 101.512 171.07 101.712 170.978 101.835Z" fill="white"/>
</svg>
