<svg width="478" height="318" viewBox="0 0 478 318" fill="none" xmlns="http://www.w3.org/2000/svg">
<g clip-path="url(#clip0_759_27)">
<path d="M316.5 318V286C316.5 284.895 315.605 284 314.5 284H310C308.895 284 308 283.105 308 282V276.5C308 275.395 308.895 274.5 310 274.5H353C354.105 274.5 355 275.395 355 276.5V282C355 283.105 354.105 284 353 284H350.5C349.395 284 348.5 284.895 348.5 286V318H316.5Z" fill="#D9D9D9" stroke="black"/>
<path d="M328.417 222C320.417 244.4 325.084 260.333 328.417 265.5C326.417 257.5 323.617 237.6 328.417 222Z" fill="#FFFF33"/>
<path d="M338.576 261.5C335.286 243.274 338.233 234.33 340.417 232L338.576 261.5Z" fill="#FFFF33"/>
<path d="M340.417 270C339.659 266.967 339.052 264.136 338.576 261.5M338.576 261.5C335.286 243.274 338.233 234.33 340.417 232L338.576 261.5ZM328.417 222C320.417 244.4 325.084 260.333 328.417 265.5C326.417 257.5 323.617 237.6 328.417 222Z" stroke="#FFFF33"/>
<path d="M202 113.448C191.5 170 192.5 187 193.5 187H202C199.5 177.58 197.2 149.616 208 113.12C206.028 113.111 204.009 113.243 202 113.448Z" fill="black"/>
<path d="M101.5 115.5C98.4639 114.425 95.4566 113.186 92.5 112.435C97.7 131.287 100.667 170 101.5 187H108L101.5 115.5Z" fill="black"/>
<path d="M37 317H259H269V313C269 310.239 266.761 308 264 308H259V187H225.5H202H193.5H108H101.5H72.5H37V308H31C28.2386 308 26 310.239 26 313V317H37Z" fill="#556677"/>
<path d="M125 115.5C117 120.3 104.667 117.5 101.5 115.5L108 187H193.5C192.5 187 191.5 170 202 113.448C195.616 114.101 189.337 115.5 185 115.5C176.2 115.5 172.667 100.5 174.5 93H130.5C130.5 98.5 133 110.7 125 115.5Z" fill="#8899AA"/>
<path d="M78.5 115.5C71.3 122.3 69.5 166 72.5 187H101.5C100.667 170 97.7 131.287 92.5 112.435C87.666 111.207 82.9675 111.281 78.5 115.5Z" fill="#8899AA"/>
<path d="M225.5 187C225.5 168.833 230.3 137.1 225.5 123.5C222.61 115.311 215.659 113.155 208 113.12C197.2 149.616 199.5 177.58 202 187H225.5Z" fill="#8899AA"/>
<path d="M37 187V186.5H36.5V187H37ZM259 187H259.5V186.5H259V187ZM277.5 45.5V45H277.296L277.151 45.1421L277.5 45.5ZM78.5 115.5L78.1567 115.136L78.5 115.5ZM101.5 115.5L101.767 115.077L101.72 115.047L101.667 115.029L101.5 115.5ZM130.5 93V92.5H130V93H130.5ZM174.5 93L174.986 93.1187L175.137 92.5H174.5V93ZM225.5 123.5L225.029 123.666L225.029 123.666L225.5 123.5ZM208 113.12L208.002 112.62L208 113.12ZM37 308V308.5H37.5V308H37ZM259 308H258.5V308.5H259V308ZM26 317H25.5V317.5H26V317ZM269 317V317.5H269.5V317H269ZM259 316.5H37V317.5H259V316.5ZM277.5 46H312.5V45H277.5V46ZM37 187.5H72.5V186.5H37V187.5ZM72.995 186.929C71.5014 176.475 71.2004 160.337 72.1739 145.959C72.6605 138.772 73.4646 132.041 74.5924 126.691C75.1564 124.015 75.7989 121.697 76.5181 119.844C77.2416 117.98 78.0244 116.637 78.8433 115.864L78.1567 115.136C77.1756 116.063 76.3272 117.573 75.5858 119.482C74.8402 121.403 74.1843 123.779 73.6139 126.484C72.4729 131.897 71.6645 138.678 71.1761 145.891C70.1996 160.313 70.4986 176.525 72.005 187.071L72.995 186.929ZM101.233 115.923C102.086 116.461 103.506 117.027 105.252 117.501C107.008 117.978 109.127 118.371 111.399 118.548C115.928 118.902 121.131 118.404 125.257 115.929L124.743 115.071C120.869 117.396 115.905 117.898 111.476 117.552C109.269 117.379 107.211 116.997 105.514 116.536C103.807 116.073 102.497 115.539 101.767 115.077L101.233 115.923ZM125.257 115.929C129.463 113.405 130.868 108.952 131.248 104.556C131.439 102.351 131.375 100.133 131.265 98.1335C131.154 96.115 131 94.3571 131 93H130C130 94.3929 130.158 96.2225 130.266 98.1883C130.375 100.173 130.436 102.336 130.252 104.469C129.882 108.748 128.537 112.795 124.743 115.071L125.257 115.929ZM130.5 93.5H174.5V92.5H130.5V93.5ZM174.014 92.8813C173.07 96.7459 173.512 102.474 175.294 107.238C177.066 111.973 180.269 116 185 116V115C180.931 115 177.967 111.527 176.231 106.887C174.505 102.276 174.097 96.7541 174.986 93.1187L174.014 92.8813ZM225.5 187.5H259V186.5H225.5V187.5ZM225.029 123.666C226.204 126.996 226.801 131.471 227.025 136.626C227.249 141.775 227.1 147.566 226.801 153.512C226.203 165.377 225 177.903 225 187H226C226 177.931 227.197 165.506 227.799 153.563C228.1 147.605 228.251 141.777 228.025 136.583C227.799 131.396 227.196 126.804 225.971 123.334L225.029 123.666ZM78.8433 115.864C81.0093 113.818 83.2115 112.793 85.4454 112.418C87.6885 112.041 89.9963 112.315 92.3769 112.92L92.6231 111.95C90.1697 111.327 87.7112 111.023 85.2798 111.431C82.8391 111.841 80.4583 112.963 78.1567 115.136L78.8433 115.864ZM92.3769 112.92C95.304 113.663 98.2634 114.884 101.333 115.971L101.667 115.029C98.6645 113.965 95.6093 112.709 92.6231 111.95L92.3769 112.92ZM72.5 187.5H101.5V186.5H72.5V187.5ZM92.018 112.568C97.201 131.358 100.167 170.016 101.001 187.024L101.999 186.976C101.166 169.984 98.199 131.216 92.982 112.302L92.018 112.568ZM101.5 187.5H108V186.5H101.5V187.5ZM108.498 186.955L101.998 115.455L101.002 115.545L107.502 187.045L108.498 186.955ZM185 116C187.211 116 189.9 115.644 192.806 115.214C195.725 114.781 198.874 114.271 202.051 113.946L201.949 112.951C198.742 113.279 195.56 113.794 192.659 114.224C189.745 114.656 187.126 115 185 115V116ZM108 187.5H193.5V186.5H108V187.5ZM201.508 113.357C196.257 141.643 193.879 160.048 192.939 171.39C192.47 177.059 192.359 180.971 192.43 183.474C192.465 184.723 192.546 185.636 192.655 186.247C192.709 186.548 192.774 186.803 192.856 186.993C192.897 187.087 192.954 187.195 193.037 187.286C193.121 187.378 193.276 187.5 193.5 187.5V186.5C193.661 186.5 193.754 186.588 193.776 186.613C193.798 186.637 193.794 186.642 193.774 186.597C193.737 186.511 193.689 186.345 193.64 186.071C193.543 185.531 193.464 184.675 193.429 183.446C193.36 180.994 193.468 177.122 193.936 171.472C194.871 160.176 197.243 141.805 202.492 113.539L201.508 113.357ZM193.5 187.5H202V186.5H193.5V187.5ZM202 187.5H225.5V186.5H202V187.5ZM202.051 113.946C204.048 113.741 206.049 113.611 207.998 113.62L208.002 112.62C206.007 112.611 203.969 112.744 201.949 112.951L202.051 113.946ZM207.998 113.62C211.788 113.637 215.352 114.181 218.31 115.697C221.251 117.205 223.625 119.691 225.029 123.666L225.971 123.334C224.484 119.12 221.938 116.433 218.766 114.807C215.611 113.19 211.87 112.638 208.002 112.62L207.998 113.62ZM202.483 186.872C200.011 177.555 197.701 149.685 208.479 113.262L207.521 112.978C196.699 149.547 198.989 177.605 201.517 187.128L202.483 186.872ZM277.151 45.1421L215.651 105.142L216.349 105.858L277.849 45.8579L277.151 45.1421ZM37.5 308V187H36.5V308H37.5ZM258.5 187V308H259.5V187H258.5ZM37 307.5H31V308.5H37V307.5ZM25.5 313V317H26.5V313H25.5ZM26 317.5H37V316.5H26V317.5ZM259 308.5H264V307.5H259V308.5ZM268.5 313V317H269.5V313H268.5ZM269 316.5H259V317.5H269V316.5ZM264 308.5C266.485 308.5 268.5 310.515 268.5 313H269.5C269.5 309.962 267.038 307.5 264 307.5V308.5ZM31 307.5C27.9624 307.5 25.5 309.962 25.5 313H26.5C26.5 310.515 28.5147 308.5 31 308.5V307.5Z" fill="black"/>
<rect x="332.5" y="12.5" width="16" height="14" stroke="black"/>
<rect x="332.5" y="37.5" width="16" height="14" stroke="black"/>
<rect x="332.5" y="62.5" width="16" height="14" stroke="black"/>
<rect x="354" y="66" width="80" height="7" fill="#D9D9D9"/>
<rect x="354" y="41" width="80" height="7" fill="#D9D9D9"/>
<rect x="354" y="16" width="80" height="7" fill="#D9D9D9"/>
<mask id="path-12-inside-1_759_27" fill="white">
<path fill-rule="evenodd" clip-rule="evenodd" d="M153 85C170.121 85 184 70.2254 184 52C184 48.3292 183.437 44.7983 182.398 41.5C171.099 39.1667 143.52 35.9 123.602 41.5C122.563 44.7983 122 48.3292 122 52C122 70.2254 135.879 85 153 85Z"/>
<path d="M153 19C139.328 19 127.722 28.4224 123.602 41.5C143.52 35.9 171.099 39.1667 182.398 41.5C178.278 28.4224 166.672 19 153 19Z"/>
</mask>
<path fill-rule="evenodd" clip-rule="evenodd" d="M153 85C170.121 85 184 70.2254 184 52C184 48.3292 183.437 44.7983 182.398 41.5C171.099 39.1667 143.52 35.9 123.602 41.5C122.563 44.7983 122 48.3292 122 52C122 70.2254 135.879 85 153 85Z" fill="#FDDDCA"/>
<path d="M153 19C139.328 19 127.722 28.4224 123.602 41.5C143.52 35.9 171.099 39.1667 182.398 41.5C178.278 28.4224 166.672 19 153 19Z" fill="black"/>
<path d="M123.738 41.9813C133.625 39.2016 145.44 38.6172 156.213 39.0246C166.982 39.4319 176.674 40.8285 182.297 41.9897L182.499 41.0103C176.823 39.8382 167.076 38.4348 156.251 38.0254C145.431 37.6162 133.498 38.1984 123.467 41.0187L123.738 41.9813ZM123.602 41.5L124.556 41.8005L123.602 41.5ZM182.398 41.5L181.444 41.8005L182.398 41.5ZM183 52C183 69.7329 169.511 84 153 84V86C170.731 86 185 70.7179 185 52H183ZM153 84C136.489 84 123 69.7329 123 52H121C121 70.7179 135.269 86 153 86V84ZM123 52C123 48.4318 123.547 45.0023 124.556 41.8005L122.648 41.1995C121.579 44.5944 121 48.2266 121 52H123ZM124.556 41.8005C128.56 29.093 139.811 20 153 20V18C138.844 18 126.885 27.7517 122.648 41.1995L124.556 41.8005ZM153 20C166.189 20 177.44 29.093 181.444 41.8005L183.352 41.1995C179.115 27.7517 167.156 18 153 18V20ZM181.444 41.8005C182.453 45.0023 183 48.4318 183 52H185C185 48.2266 184.421 44.5944 183.352 41.1995L181.444 41.8005Z" fill="black" mask="url(#path-12-inside-1_759_27)"/>
<circle cx="124.5" cy="222.5" r="13" fill="#DDEEFF" stroke="#55FFFF"/>
</g>
<defs>
<clipPath id="clip0_759_27">
<rect width="478" height="318" fill="white"/>
</clipPath>
</defs>
</svg>
