<svg width="300" height="300" viewBox="0 0 300 300" fill="none" xmlns="http://www.w3.org/2000/svg">
<g clip-path="url(#clip0_754_8)">
<rect width="300" height="300" rx="150" fill="#556677"/>
<mask id="path-3-inside-1_754_8" fill="white">
<path d="M158.87 238.073L131.915 219.151C105.768 229.463 83.6118 241.808 64 238.073C49.2157 235.258 1.40506 245.432 -7 258.573C17.5148 284.301 86.016 334.761 163.903 330.777C241.79 326.794 303.754 280.981 325 258.573C320.797 247.161 275.017 236.081 247 238.073C218.983 240.065 199.275 221.488 177.737 217.574L158.87 238.073Z"/>
<path fill-rule="evenodd" clip-rule="evenodd" d="M132.594 96.3167C140.837 94.48 148.266 93.4163 152.58 93C153.664 93 154.932 93.0348 156.347 93.1129M156.347 93.1129C155.101 93.038 153.846 93 152.58 93C145.56 93 138.829 94.1707 132.594 96.3167"/>
<path d="M103.667 152.133L116.975 157.735L132.594 142.796C138.353 144.664 155.289 140.804 152.58 142.796C149.871 144.788 153.281 156.767 152.58 157.735C160.752 155.107 171.608 139.933 171.608 138.439C171.608 136.945 177.832 148.883 178.678 152.756L197.523 138.439L210.951 146.394C209.987 117.931 186.219 94.9099 156.347 93.1129C154.932 93.0348 153.664 93 152.58 93C148.266 93.4163 140.837 94.48 132.594 96.3167C113.116 103.021 97.8743 132.969 94.3765 152.756L103.667 152.133Z"/>
<path d="M107.869 104.204C92.7401 111.176 84.0548 147.776 84.0548 157.735L94.3765 152.756C97.8743 132.969 113.116 103.021 132.594 96.3167C124.403 98.1416 115.409 100.73 107.869 104.204Z"/>
<path d="M224.139 157.735C220.849 145.494 207.557 113.168 194.722 104.204C183.485 96.3572 166.292 93.6624 156.347 93.1129C186.219 94.9099 209.987 117.931 210.951 146.394L224.139 157.735Z"/>
<path d="M177.737 217.574C176.54 214.157 174.144 206.536 174.144 203.382C174.144 200.675 176.791 198.593 178.678 197.578C178.989 197.411 179.28 197.272 179.534 197.165C190.721 191.655 199.783 182.822 205.256 172.052C208.048 171.844 209.379 170.99 210.5 168.5C211.901 165.388 213 165 212.5 160.5C212.272 158.451 211 158.5 209.5 159C210.412 155.126 210.981 152.324 210.981 148.191C210.981 147.59 210.971 146.991 210.951 146.394L197.523 138.439L178.678 152.756C177.832 148.883 171.608 136.945 171.608 138.439C171.608 139.933 160.752 155.107 152.58 157.735C153.281 156.767 149.871 144.788 152.58 142.796C155.289 140.804 138.353 144.664 132.594 142.796L116.975 157.735L103.667 152.133L94.3765 152.756C94.3871 152.879 94.3982 153.002 94.4097 153.125C94.6056 155.214 94.9248 157.271 95.3602 159.287C92.8427 159.287 92.8142 161.193 94 165C95.0903 168.5 95 170.5 96 171.5C96.9155 172.416 98.7255 173.297 100.9 173.919C106.443 183.843 115.093 191.977 125.626 197.165C126.525 197.66 129.04 199.597 131.915 203.382C134.791 207.166 133.113 215.471 131.915 219.151L158.87 238.073L177.737 217.574Z"/>
</mask>
<path d="M158.87 238.073L131.915 219.151C105.768 229.463 83.6118 241.808 64 238.073C49.2157 235.258 1.40506 245.432 -7 258.573C17.5148 284.301 86.016 334.761 163.903 330.777C241.79 326.794 303.754 280.981 325 258.573C320.797 247.161 275.017 236.081 247 238.073C218.983 240.065 199.275 221.488 177.737 217.574L158.87 238.073Z" fill="#333333"/>
<path fill-rule="evenodd" clip-rule="evenodd" d="M132.594 96.3167C140.837 94.48 148.266 93.4163 152.58 93C153.664 93 154.932 93.0348 156.347 93.1129M156.347 93.1129C155.101 93.038 153.846 93 152.58 93C145.56 93 138.829 94.1707 132.594 96.3167" fill="#FDDDCA"/>
<path d="M103.667 152.133L116.975 157.735L132.594 142.796C138.353 144.664 155.289 140.804 152.58 142.796C149.871 144.788 153.281 156.767 152.58 157.735C160.752 155.107 171.608 139.933 171.608 138.439C171.608 136.945 177.832 148.883 178.678 152.756L197.523 138.439L210.951 146.394C209.987 117.931 186.219 94.9099 156.347 93.1129C154.932 93.0348 153.664 93 152.58 93C148.266 93.4163 140.837 94.48 132.594 96.3167C113.116 103.021 97.8743 132.969 94.3765 152.756L103.667 152.133Z" fill="black"/>
<path d="M107.869 104.204C92.7401 111.176 84.0548 147.776 84.0548 157.735L94.3765 152.756C97.8743 132.969 113.116 103.021 132.594 96.3167C124.403 98.1416 115.409 100.73 107.869 104.204Z" fill="black"/>
<path d="M224.139 157.735C220.849 145.494 207.557 113.168 194.722 104.204C183.485 96.3572 166.292 93.6624 156.347 93.1129C186.219 94.9099 209.987 117.931 210.951 146.394L224.139 157.735Z" fill="black"/>
<path d="M177.737 217.574C176.54 214.157 174.144 206.536 174.144 203.382C174.144 200.675 176.791 198.593 178.678 197.578C178.989 197.411 179.28 197.272 179.534 197.165C190.721 191.655 199.783 182.822 205.256 172.052C208.048 171.844 209.379 170.99 210.5 168.5C211.901 165.388 213 165 212.5 160.5C212.272 158.451 211 158.5 209.5 159C210.412 155.126 210.981 152.324 210.981 148.191C210.981 147.59 210.971 146.991 210.951 146.394L197.523 138.439L178.678 152.756C177.832 148.883 171.608 136.945 171.608 138.439C171.608 139.933 160.752 155.107 152.58 157.735C153.281 156.767 149.871 144.788 152.58 142.796C155.289 140.804 138.353 144.664 132.594 142.796L116.975 157.735L103.667 152.133L94.3765 152.756C94.3871 152.879 94.3982 153.002 94.4097 153.125C94.6056 155.214 94.9248 157.271 95.3602 159.287C92.8427 159.287 92.8142 161.193 94 165C95.0903 168.5 95 170.5 96 171.5C96.9155 172.416 98.7255 173.297 100.9 173.919C106.443 183.843 115.093 191.977 125.626 197.165C126.525 197.66 129.04 199.597 131.915 203.382C134.791 207.166 133.113 215.471 131.915 219.151L158.87 238.073L177.737 217.574Z" fill="#FDDDCA"/>
<path d="M152.58 93V92.5H152.556L152.532 92.5023L152.58 93ZM158.87 238.073L158.582 238.482L158.941 238.734L159.237 238.412L158.87 238.073ZM103.667 152.133L103.861 151.672L103.751 151.626L103.633 151.634L103.667 152.133ZM116.975 157.735L116.781 158.196L117.083 158.323L117.32 158.097L116.975 157.735ZM132.594 142.796L132.748 142.321L132.464 142.229L132.248 142.435L132.594 142.796ZM152.58 157.735L152.175 157.442L151.281 158.678L152.733 158.211L152.58 157.735ZM178.678 152.756L178.189 152.862L178.356 153.628L178.98 153.154L178.678 152.756ZM197.523 138.439L197.778 138.009L197.489 137.837L197.221 138.041L197.523 138.439ZM210.951 146.394L210.696 146.824L211.481 147.29L211.45 146.377L210.951 146.394ZM132.594 96.3167L132.485 95.8287L132.457 95.8348L132.431 95.8439L132.594 96.3167ZM156.347 93.1129L156.377 92.6138L156.374 92.6137L156.347 93.1129ZM131.628 219.56L158.582 238.482L159.157 237.664L132.203 218.741L131.628 219.56ZM159.237 238.412L178.105 217.912L177.37 217.235L158.502 237.735L159.237 238.412ZM179.313 196.716C179.032 196.855 178.749 196.992 178.464 197.126L178.892 198.03C179.181 197.893 179.469 197.754 179.755 197.613L179.313 196.716ZM103.473 152.594L116.781 158.196L117.169 157.274L103.861 151.672L103.473 152.594ZM117.32 158.097L132.939 143.158L132.248 142.435L116.629 157.374L117.32 158.097ZM132.439 143.272C133.968 143.768 136.182 143.872 138.542 143.804C140.918 143.735 143.506 143.488 145.815 143.247C148.138 143.004 150.155 142.77 151.43 142.718C151.747 142.705 152.006 142.704 152.207 142.716C152.421 142.728 152.519 142.753 152.545 142.763C152.557 142.768 152.497 142.748 152.441 142.669C152.368 142.565 152.359 142.442 152.385 142.351C152.404 142.285 152.433 142.263 152.41 142.287C152.392 142.307 152.354 142.342 152.284 142.393L152.876 143.199C152.976 143.126 153.069 143.048 153.145 142.965C153.217 142.888 153.304 142.774 153.346 142.626C153.396 142.453 153.375 142.259 153.258 142.092C153.158 141.951 153.021 141.878 152.926 141.839C152.737 141.761 152.496 141.731 152.264 141.717C152.017 141.703 151.722 141.706 151.39 141.719C150.072 141.772 148.003 142.013 145.711 142.252C143.404 142.493 140.848 142.737 138.513 142.804C136.161 142.872 134.099 142.759 132.748 142.321L132.439 143.272ZM152.284 142.393C151.829 142.728 151.54 143.243 151.355 143.817C151.169 144.394 151.074 145.077 151.037 145.809C150.962 147.274 151.117 149.024 151.331 150.712C151.544 152.391 151.824 154.078 152 155.341C152.089 155.985 152.151 156.521 152.171 156.922C152.181 157.123 152.179 157.274 152.168 157.38C152.156 157.508 152.136 157.496 152.175 157.442L152.985 158.028C153.112 157.853 153.148 157.634 153.163 157.48C153.181 157.303 153.181 157.095 153.17 156.872C153.148 156.425 153.08 155.851 152.99 155.204C152.808 153.887 152.537 152.273 152.323 150.587C152.111 148.91 151.965 147.232 152.035 145.86C152.07 145.174 152.158 144.586 152.307 144.124C152.457 143.657 152.655 143.362 152.876 143.199L152.284 142.393ZM152.733 158.211C154.866 157.525 157.135 156.037 159.322 154.205C161.515 152.367 163.657 150.157 165.536 147.989C167.416 145.821 169.04 143.687 170.196 141.997C170.774 141.153 171.239 140.413 171.562 139.832C171.723 139.542 171.853 139.284 171.945 139.067C172.027 138.872 172.108 138.643 172.108 138.439H171.108C171.108 138.422 171.104 138.487 171.023 138.679C170.951 138.85 170.84 139.073 170.688 139.347C170.385 139.891 169.939 140.603 169.371 141.432C168.237 143.09 166.636 145.194 164.78 147.334C162.924 149.475 160.82 151.645 158.68 153.438C156.532 155.237 154.38 156.631 152.427 157.259L152.733 158.211ZM172.108 138.439C172.108 138.415 172.114 138.488 172.062 138.582C172.03 138.639 171.971 138.712 171.873 138.762C171.774 138.812 171.678 138.816 171.609 138.806C171.546 138.798 171.502 138.777 171.484 138.767C171.473 138.762 171.465 138.757 171.461 138.754C171.456 138.751 171.454 138.749 171.454 138.749C171.453 138.749 171.458 138.752 171.468 138.762C171.477 138.771 171.49 138.784 171.505 138.801C171.643 138.955 171.869 139.278 172.168 139.763C172.754 140.716 173.552 142.175 174.38 143.811C175.207 145.444 176.059 147.243 176.757 148.871C177.459 150.51 177.989 151.944 178.189 152.862L179.166 152.649C178.944 151.63 178.379 150.12 177.676 148.478C176.969 146.826 176.106 145.007 175.272 143.359C174.438 141.712 173.626 140.225 173.019 139.239C172.721 138.754 172.454 138.36 172.248 138.132C172.196 138.073 172.136 138.013 172.071 137.962C172.019 137.922 171.904 137.838 171.746 137.816C171.654 137.803 171.538 137.81 171.422 137.869C171.306 137.927 171.233 138.016 171.189 138.094C171.113 138.23 171.108 138.37 171.108 138.439H172.108ZM178.98 153.154L197.826 138.837L197.221 138.041L178.375 152.357L178.98 153.154ZM211.205 145.964L197.778 138.009L197.268 138.869L210.696 146.824L211.205 145.964ZM103.633 151.634L94.343 152.257L94.4099 153.254L103.7 152.632L103.633 151.634ZM93.8841 152.669C93.8521 152.85 93.8267 152.958 93.8095 153.014C93.7997 153.046 93.7999 153.036 93.8153 153.009C93.8225 152.997 93.8471 152.955 93.8956 152.91C93.9445 152.866 94.0559 152.785 94.2213 152.787C94.3913 152.788 94.5053 152.875 94.5588 152.929C94.6093 152.981 94.6332 153.03 94.6405 153.045C94.6562 153.079 94.6572 153.095 94.6519 153.07C94.6432 153.029 94.6322 152.948 94.6218 152.82C94.5808 152.314 94.5721 151.379 94.5805 150.425C94.5887 149.477 94.6134 148.536 94.6358 148.029C94.6414 147.901 94.6467 147.806 94.6512 147.746C94.6536 147.714 94.6551 147.703 94.6549 147.704C94.6547 147.705 94.6539 147.711 94.6524 147.719C94.6513 147.724 94.6474 147.744 94.639 147.77C94.6348 147.783 94.6262 147.808 94.6113 147.837C94.6005 147.859 94.5649 147.928 94.4902 147.992C94.3989 148.071 94.2178 148.159 94.0027 148.085C93.8386 148.029 93.7613 147.909 93.7416 147.877C93.6947 147.801 93.681 147.731 93.6805 147.729C93.6762 147.71 93.6743 147.696 93.6737 147.692C93.6724 147.683 93.6724 147.679 93.6729 147.687C93.6739 147.701 93.675 147.728 93.6761 147.773C93.6783 147.861 93.6796 147.997 93.6796 148.191H94.6796C94.6796 147.995 94.6783 147.849 94.6758 147.748C94.6746 147.699 94.673 147.656 94.6708 147.621C94.6697 147.605 94.6679 147.582 94.6649 147.559C94.6634 147.548 94.6606 147.529 94.6553 147.506C94.6539 147.5 94.6392 147.427 94.5913 147.35C94.5711 147.317 94.4932 147.196 94.3286 147.14C94.1131 147.065 93.9314 147.154 93.8395 147.233C93.7644 147.297 93.7282 147.368 93.7169 147.39C93.7014 147.421 93.6923 147.447 93.6876 147.462C93.672 147.51 93.6662 147.554 93.665 147.562C93.6601 147.596 93.6567 147.635 93.654 147.671C93.6483 147.747 93.6425 147.855 93.6367 147.984C93.6137 148.506 93.5889 149.46 93.5805 150.416C93.5722 151.365 93.5799 152.343 93.6251 152.901C93.6363 153.039 93.6513 153.171 93.6734 153.276C93.6836 153.325 93.7014 153.398 93.735 153.47C93.7514 153.505 93.7845 153.568 93.8447 153.629C93.9079 153.694 94.0319 153.785 94.2123 153.787C94.388 153.788 94.51 153.703 94.57 153.649C94.6296 153.594 94.6656 153.537 94.6846 153.504C94.7235 153.435 94.7486 153.362 94.7654 153.308C94.8012 153.191 94.835 153.034 94.8688 152.843L93.8841 152.669ZM132.702 96.8048C140.926 94.9724 148.335 93.912 152.628 93.4977L152.532 92.5023C148.198 92.9206 140.748 93.9876 132.485 95.8287L132.702 96.8048ZM152.58 93.5C153.653 93.5 154.912 93.5344 156.319 93.6122L156.374 92.6137C154.951 92.5351 153.674 92.5 152.58 92.5V93.5ZM94.8688 152.843C96.6058 143.017 101.266 130.642 107.918 119.893C114.578 109.131 123.18 100.086 132.756 96.7895L132.431 95.8439C122.53 99.2518 113.772 108.533 107.067 119.367C100.355 130.214 95.6449 142.707 93.8841 152.669L94.8688 152.843ZM156.317 93.612C185.956 95.3949 209.497 118.23 210.451 146.411L211.45 146.377C210.478 117.633 186.483 94.4248 156.377 92.6138L156.317 93.612ZM96.9654 159.827C96.5641 159.522 96.1171 159.198 95.642 158.874L95.0784 159.7C95.539 160.014 95.9719 160.328 96.3595 160.623L96.9654 159.827ZM94.9076 153.078C94.7566 151.468 94.6796 149.838 94.6796 148.191H93.6796C93.6796 149.869 93.7581 151.53 93.9119 153.171L94.9076 153.078ZM179.534 197.165L179.923 198.086L179.95 198.075L179.976 198.062L179.534 197.165ZM177.737 217.574L176.794 217.905L176.986 218.454L177.559 218.558L177.737 217.574ZM125.626 197.165L126.109 196.289L126.089 196.278L126.068 196.268L125.626 197.165ZM131.915 219.151L132.282 220.081L132.72 219.908L132.866 219.46L131.915 219.151ZM178.678 197.578L178.204 196.698L178.678 197.578ZM64 238.073L64.1871 237.091L64 238.073ZM-7 258.573L-7.84242 258.034L-8.26507 258.695L-7.72397 259.263L-7 258.573ZM325 258.573L325.726 259.261L326.153 258.81L325.938 258.227L325 258.573ZM84.0548 157.735H83.0548V159.328L84.4894 158.636L84.0548 157.735ZM224.139 157.735L223.487 158.493L225.947 160.609L225.105 157.476L224.139 157.735ZM194.722 104.204L195.294 103.384L194.722 104.204ZM107.869 104.204L108.288 105.112L107.869 104.204ZM210.951 146.394L211.603 145.636L209.874 144.15L209.951 146.428L210.951 146.394ZM94.3765 152.756L95.3727 152.669L95.2476 151.225L93.9419 151.855L94.3765 152.756ZM132.594 96.3167L132.811 97.2928L132.866 97.2806L132.919 97.2623L132.594 96.3167ZM156.347 93.1129L156.287 94.1111L156.291 94.1114L156.347 93.1129ZM209.5 159L208.527 158.771L208.116 160.515L209.816 159.949L209.5 159ZM210.5 168.5L209.588 168.09L210.5 168.5ZM205.256 172.052L205.182 171.054L204.62 171.096L204.365 171.599L205.256 172.052ZM94 165L94.9548 164.703L94 165ZM100.9 173.919L101.773 173.431L101.572 173.071L101.175 172.958L100.9 173.919ZM95.3602 159.287V160.287H96.5993L96.3377 159.076L95.3602 159.287ZM94.4097 153.125L95.4054 153.031V153.031L94.4097 153.125ZM173.144 203.382C173.144 205.114 173.783 207.934 174.527 210.644C175.283 213.397 176.189 216.179 176.794 217.905L178.681 217.243C178.088 215.552 177.197 212.815 176.456 210.114C175.702 207.371 175.144 204.803 175.144 203.382H173.144ZM125.143 198.04C125.882 198.448 128.298 200.273 131.119 203.987L132.712 202.777C129.783 198.922 127.167 196.873 126.109 196.289L125.143 198.04ZM131.119 203.987C132.321 205.568 132.652 208.263 132.445 211.236C132.242 214.148 131.543 217.063 130.965 218.841L132.866 219.46C133.485 217.559 134.224 214.481 134.44 211.375C134.653 208.33 134.385 204.98 132.712 202.777L131.119 203.987ZM175.144 203.382C175.144 202.368 175.64 201.4 176.443 200.519C177.243 199.64 178.275 198.93 179.152 198.459L178.204 196.698C177.194 197.241 175.959 198.079 174.964 199.172C173.971 200.262 173.144 201.689 173.144 203.382H175.144ZM179.146 196.243C178.86 196.364 178.541 196.516 178.204 196.698L179.152 198.459C179.438 198.305 179.7 198.18 179.923 198.086L179.146 196.243ZM131.549 218.22C118.378 223.415 106.427 229.03 95.1789 232.935C83.9703 236.826 73.7315 238.908 64.1871 237.091L63.8129 239.056C73.8803 240.973 84.5255 238.75 95.8348 234.824C107.105 230.912 119.305 225.199 132.282 220.081L131.549 218.22ZM64.1871 237.091C60.3368 236.358 54.4528 236.481 47.7378 237.247C40.9957 238.016 33.325 239.443 25.8578 241.371C18.3939 243.298 11.105 245.732 5.13688 248.524C-0.78431 251.294 -5.57785 254.493 -7.84242 258.034L-6.15758 259.112C-4.21962 256.082 0.115075 253.081 5.98432 250.336C11.8066 247.612 18.9703 245.215 26.3578 243.308C33.742 241.401 41.3213 239.992 47.9644 239.234C54.6347 238.473 60.2711 238.381 63.8129 239.056L64.1871 237.091ZM177.559 218.558C188.174 220.487 198.3 226.019 209.537 230.954C220.703 235.858 232.816 240.084 247.071 239.071L246.929 237.076C233.167 238.054 221.418 233.988 210.341 229.123C199.336 224.289 188.839 218.575 177.916 216.59L177.559 218.558ZM247.071 239.071C260.944 238.084 279.282 240.336 294.683 244.266C302.38 246.229 309.301 248.601 314.539 251.173C317.158 252.459 319.329 253.782 320.96 255.109C322.601 256.446 323.624 257.73 324.062 258.918L325.938 258.227C325.325 256.563 323.998 255.004 322.222 253.558C320.435 252.103 318.121 250.704 315.42 249.378C310.016 246.724 302.953 244.311 295.178 242.328C279.633 238.362 261.073 236.07 246.929 237.076L247.071 239.071ZM-7.72397 259.263C4.61055 272.208 27.9551 291.322 57.9809 306.707C88.009 322.093 124.783 333.78 163.954 331.776L163.852 329.779C125.136 331.759 88.7159 320.208 58.8929 304.927C29.0677 289.645 5.90422 270.666 -6.27603 257.883L-7.72397 259.263ZM163.954 331.776C242.171 327.775 304.361 281.794 325.726 259.261L324.274 257.885C303.147 280.168 241.409 325.812 163.852 329.779L163.954 331.776ZM225.105 157.476C223.439 151.278 219.267 140.074 213.905 129.295C211.222 123.902 208.23 118.593 205.092 114.059C201.964 109.539 198.646 105.725 195.294 103.384L194.149 105.024C197.214 107.165 200.371 110.753 203.448 115.197C206.515 119.628 209.458 124.847 212.114 130.186C217.43 140.871 221.549 151.95 223.174 157.995L225.105 157.476ZM107.451 103.296C103.417 105.155 99.91 108.933 96.9249 113.567C93.9287 118.219 91.3945 123.834 89.3479 129.51C85.2647 140.834 83.0548 152.596 83.0548 157.735H85.0548C85.0548 152.915 87.1876 141.397 91.2293 130.188C93.2452 124.598 95.719 119.133 98.6063 114.65C101.505 110.15 104.757 106.74 108.288 105.112L107.451 103.296ZM211.981 148.191C211.981 147.578 211.971 146.968 211.95 146.36L209.951 146.428C209.971 147.013 209.981 147.601 209.981 148.191H211.981ZM156.407 92.1147C155.141 92.0386 153.866 92 152.58 92V94C153.826 94 155.061 94.0374 156.287 94.1111L156.407 92.1147ZM152.58 92C145.448 92 138.607 93.1894 132.268 95.3712L132.919 97.2623C139.05 95.152 145.671 94 152.58 94V92ZM195.294 103.384C183.82 95.3712 166.39 92.6663 156.402 92.1145L156.291 94.1114C166.194 94.6585 183.15 97.3432 194.149 105.024L195.294 103.384ZM132.376 95.3407C124.152 97.1731 115.081 99.7797 107.451 103.296L108.288 105.112C115.737 101.68 124.655 99.1102 132.811 97.2928L132.376 95.3407ZM84.4894 158.636L94.811 153.656L93.9419 151.855L83.6203 156.835L84.4894 158.636ZM210.299 147.152L223.487 158.493L224.791 156.977L211.603 145.636L210.299 147.152ZM209.981 148.191C209.981 152.208 209.432 154.921 208.527 158.771L210.473 159.229C211.391 155.331 211.981 152.44 211.981 148.191H209.981ZM209.816 159.949C210.567 159.699 210.968 159.677 211.156 159.741C211.205 159.758 211.248 159.782 211.301 159.866C211.368 159.971 211.459 160.191 211.506 160.61L213.494 160.39C213.358 159.171 212.853 158.205 211.799 157.847C210.918 157.548 209.933 157.801 209.184 158.051L209.816 159.949ZM211.506 160.61C211.747 162.774 211.589 163.824 211.275 164.674C211.108 165.124 210.887 165.548 210.593 166.097C210.303 166.636 209.955 167.275 209.588 168.09L211.412 168.91C211.745 168.169 212.06 167.592 212.355 167.043C212.645 166.503 212.93 165.965 213.151 165.367C213.612 164.12 213.753 162.726 213.494 160.39L211.506 160.61ZM204.365 171.599C198.994 182.169 190.093 190.849 179.093 196.268L179.976 198.062C191.349 192.46 200.573 183.475 206.148 172.505L204.365 171.599ZM209.588 168.09C209.069 169.243 208.556 169.894 207.948 170.301C207.333 170.713 206.501 170.956 205.182 171.054L205.33 173.049C206.803 172.939 208.033 172.652 209.062 171.962C210.098 171.268 210.81 170.247 211.412 168.91L209.588 168.09ZM93.0452 165.297C93.5745 166.996 93.8109 168.306 94.0582 169.407C94.2894 170.436 94.5595 171.474 95.2929 172.207L96.7071 170.793C96.4405 170.526 96.2557 170.064 96.0095 168.968C95.7794 167.944 95.5158 166.504 94.9548 164.703L93.0452 165.297ZM126.068 196.268C115.71 191.166 107.214 183.172 101.773 173.431L100.027 174.407C105.672 184.513 114.475 192.787 125.184 198.062L126.068 196.268ZM95.2929 172.207C96.3909 173.305 98.4007 174.244 100.625 174.88L101.175 172.958C99.0503 172.349 97.4402 171.526 96.7071 170.793L95.2929 172.207ZM95.3602 158.287C94.6214 158.287 93.9145 158.424 93.343 158.827C92.743 159.249 92.4298 159.866 92.3076 160.537C92.1903 161.18 92.2396 161.909 92.3732 162.673C92.5085 163.448 92.743 164.327 93.0452 165.297L94.9548 164.703C94.664 163.769 94.4575 162.983 94.3433 162.329C94.2274 161.666 94.2189 161.204 94.2752 160.895C94.3265 160.614 94.4184 160.515 94.4947 160.462C94.5995 160.388 94.8402 160.287 95.3602 160.287V158.287ZM93.3802 152.842C93.3911 152.967 93.4024 153.093 93.4141 153.218L95.4054 153.031C95.3941 152.911 95.3832 152.79 95.3727 152.669L93.3802 152.842ZM93.4141 153.218C93.6137 155.347 93.939 157.443 94.3828 159.498L96.3377 159.076C95.9106 157.098 95.5975 155.081 95.4054 153.031L93.4141 153.218Z" fill="black" mask="url(#path-3-inside-1_754_8)"/>
<path d="M200.5 179.5L273.5 123" stroke="#334455"/>
<path d="M219 205.5C247.4 176.7 249.5 120.5 247 96" stroke="#334455"/>
<circle cx="243" cy="82" r="5" fill="#334455"/>
<circle cx="284" cy="118" r="5" fill="#334455"/>
<path d="M260 136C264.8 133.2 269.667 133.167 271.5 133.5H275C274.5 135.333 272.7 138.9 269.5 138.5C266.3 138.1 261.833 136.667 260 136Z" fill="#334455" stroke="#334455"/>
<path d="M239.201 137.064C239.226 142.621 236.822 146.852 235.616 148.273L233.866 151.304C232.529 149.955 230.34 146.612 232.286 144.041C234.233 141.47 237.707 138.318 239.201 137.064Z" fill="#334455" stroke="#334455"/>
<path d="M230.644 187C227.844 182.2 227.81 177.333 228.144 175.5V172C229.977 172.5 233.544 174.3 233.144 177.5C232.744 180.7 231.31 185.167 230.644 187Z" fill="#334455" stroke="#334455"/>
<path d="M245.79 129.256C240.965 126.499 238.502 122.301 237.874 120.546L236.124 117.515C237.962 117.032 241.951 116.807 243.204 119.779C244.458 122.75 245.45 127.335 245.79 129.256Z" fill="#334455" stroke="#334455"/>
<path opacity="0.7" d="M249.396 123.712C248.887 118.178 250.913 113.754 251.99 112.233L253.47 109.061C254.92 110.289 257.391 113.427 255.677 116.159C253.962 118.89 250.775 122.332 249.396 123.712Z" fill="#334455" stroke="#334455"/>
<path opacity="0.7" d="M236.699 182.667C238.577 177.437 242.283 174.283 243.902 173.36L246.583 171.11C247.378 172.836 248.292 176.725 245.584 178.475C242.875 180.226 238.532 181.999 236.699 182.667Z" fill="#334455" stroke="#334455"/>
</g>
<rect x="1.5" y="1.5" width="297" height="297" rx="148.5" stroke="#55FFFF" stroke-width="3"/>
<defs>
<clipPath id="clip0_754_8">
<rect width="300" height="300" rx="150" fill="white"/>
</clipPath>
</defs>
</svg>
