<svg width="1046" height="618" viewBox="0 0 1046 618" fill="none" xmlns="http://www.w3.org/2000/svg">
<path d="M246.393 579.5C246.393 579.5 240.394 493.004 247.393 436.004C247.393 436.001 247.393 436.003 247.393 436C247.405 435.911 251.486 403.492 260.393 385C280.765 342.708 310.028 322.001 355.893 312C374.605 307.92 404.893 310 404.893 310H504.893C504.893 310 648.894 305.5 674.393 310C699.893 314.5 739.181 328.301 764.393 359.5C788.029 388.748 794.393 412.395 794.393 450V581H764.393C764.393 581 769.894 535 764.393 473.5C761.04 435.998 747.003 413.549 718.893 388.5C693.033 365.455 671.945 355.954 637.393 353.5C545.894 347 413.394 348.5 386.894 353.5C360.394 358.5 341.394 370.5 316.393 392.5C287.117 418.263 280.274 445.195 276.393 484C272.394 524 276.393 579.5 276.393 579.5H246.393Z" fill="#BBCCDD"/>
<g clip-path="url(#clip0_728_13)">
<path fill-rule="evenodd" clip-rule="evenodd" d="M502 320L496 338H665L658.5 320H612V266H723.5L723 65H433V266.5L542 266V320H502ZM717 71H439V260H717V71ZM569.5 274C568.772 271.09 569.5 266 569.5 266H585C585 266 585.687 273.096 585 275.5C584 279 581.055 278.913 578 279C574.15 279.109 570.5 278 569.5 274Z" fill="black"/>
<path d="M439 71H717V260H439V71Z" fill="#556677"/>
<path d="M502 320V319.95H501.964L501.953 319.984L502 320ZM496 338L495.953 337.984L495.931 338.05H496V338ZM665 338V338.05H665.071L665.047 337.983L665 338ZM658.5 320L658.547 319.983L658.535 319.95H658.5V320ZM612 320H611.95V320.05H612V320ZM612 266V265.95H611.95V266H612ZM723.5 266V266.05H723.55L723.55 266L723.5 266ZM723 65L723.05 64.9999L723.05 64.95H723V65ZM433 65V64.95H432.95V65H433ZM433 266.5H432.95V266.55L433 266.55L433 266.5ZM542 266H542.05V265.95L542 265.95L542 266ZM542 320V320.05H542.05V320H542ZM439 71V70.95H438.95V71H439ZM717 71H717.05V70.95H717V71ZM717 260V260.05H717.05V260H717ZM439 260H438.95V260.05H439V260ZM569.5 266V265.95H569.457L569.451 265.993L569.5 266ZM578 279L577.999 278.95L578 279ZM585 275.5L584.952 275.486L585 275.5ZM585 266L585.05 265.995L585.045 265.95H585V266ZM501.953 319.984L495.953 337.984L496.047 338.016L502.047 320.016L501.953 319.984ZM496 338.05H665V337.95H496V338.05ZM665.047 337.983L658.547 319.983L658.453 320.017L664.953 338.017L665.047 337.983ZM658.5 319.95H612V320.05H658.5V319.95ZM612.05 320V266H611.95V320H612.05ZM612 266.05H723.5V265.95H612V266.05ZM723.55 266L723.05 64.9999L722.95 65.0001L723.45 266L723.55 266ZM723 64.95H433V65.05H723V64.95ZM432.95 65V266.5H433.05V65H432.95ZM433 266.55L542 266.05L542 265.95L433 266.45L433 266.55ZM541.95 266V320H542.05V266H541.95ZM542 319.95H502V320.05H542V319.95ZM439 71.05H717V70.95H439V71.05ZM716.95 71V260H717.05V71H716.95ZM439.05 260V71H438.95V260H439.05ZM717 259.95H439V260.05H717V259.95ZM569.5 266C569.451 265.993 569.451 265.993 569.451 265.993C569.45 265.993 569.45 265.993 569.45 265.993C569.45 265.993 569.45 265.994 569.45 265.994C569.45 265.995 569.45 265.995 569.45 265.997C569.45 265.999 569.449 266.003 569.448 266.008C569.447 266.018 569.445 266.032 569.442 266.051C569.437 266.089 569.43 266.145 569.421 266.218C569.402 266.363 569.376 266.574 569.348 266.835C569.291 267.359 569.223 268.087 569.177 268.906C569.086 270.543 569.086 272.549 569.451 274.012L569.549 273.988C569.187 272.541 569.186 270.547 569.277 268.911C569.322 268.094 569.391 267.368 569.447 266.846C569.476 266.585 569.501 266.375 569.52 266.231C569.529 266.158 569.536 266.102 569.542 266.065C569.544 266.046 569.546 266.031 569.547 266.022C569.548 266.017 569.549 266.013 569.549 266.011C569.549 266.009 569.549 266.009 569.549 266.008C569.549 266.008 569.549 266.007 569.549 266.007C569.549 266.007 569.549 266.007 569.549 266.007C569.549 266.007 569.549 266.007 569.5 266ZM569.451 274.012C569.955 276.027 571.128 277.316 572.659 278.086C574.188 278.855 576.072 279.105 578.001 279.05L577.999 278.95C576.078 279.005 574.212 278.755 572.704 277.996C571.197 277.239 570.045 275.973 569.549 273.988L569.451 274.012ZM578.001 279.05C579.525 279.007 581.035 279.007 582.287 278.577C582.914 278.362 583.479 278.038 583.95 277.546C584.421 277.054 584.796 276.395 585.048 275.514L584.952 275.486C584.704 276.355 584.336 276.998 583.878 277.477C583.42 277.955 582.87 278.271 582.254 278.483C581.02 278.906 579.53 278.907 577.999 278.95L578.001 279.05ZM585.048 275.514C585.222 274.906 585.308 274.007 585.34 273.003C585.372 271.998 585.35 270.884 585.308 269.846C585.265 268.809 585.2 267.846 585.146 267.143C585.12 266.791 585.095 266.504 585.078 266.305C585.069 266.206 585.062 266.128 585.057 266.076C585.055 266.049 585.053 266.029 585.052 266.016C585.051 266.009 585.051 266.004 585.05 266C585.05 265.999 585.05 265.997 585.05 265.997C585.05 265.996 585.05 265.996 585.05 265.996C585.05 265.995 585.05 265.995 585.05 265.995C585.05 265.995 585.05 265.995 585 266C584.95 266.005 584.95 266.005 584.95 266.005C584.95 266.005 584.95 266.005 584.95 266.005C584.95 266.005 584.95 266.006 584.95 266.006C584.95 266.007 584.951 266.008 584.951 266.01C584.951 266.013 584.952 266.018 584.952 266.025C584.953 266.039 584.955 266.059 584.958 266.085C584.963 266.137 584.97 266.215 584.978 266.314C584.996 266.513 585.02 266.799 585.047 267.15C585.1 267.853 585.165 268.814 585.208 269.851C585.25 270.887 585.272 271.998 585.24 273C585.208 274.003 585.122 274.892 584.952 275.486L585.048 275.514ZM585 265.95H569.5V266.05H585V265.95Z" fill="black"/>
<rect width="31" height="2" transform="translate(565 334)" fill="white"/>
<rect width="3.5" height="3.5" transform="translate(508 322)" fill="white"/>
<rect width="3.5" height="3.5" transform="translate(516 322)" fill="white"/>
<rect width="3.5" height="3.5" transform="translate(516 329)" fill="white"/>
<rect width="3.5" height="3.5" transform="translate(508 329)" fill="white"/>
<rect width="3.5" height="3.5" transform="translate(524 322)" fill="white"/>
<rect width="3.5" height="3.5" transform="translate(532 322)" fill="white"/>
<rect width="3.5" height="3.5" transform="translate(532 329)" fill="white"/>
<rect width="3.5" height="3.5" transform="translate(524 329)" fill="white"/>
<rect width="3.5" height="3.5" transform="translate(540 322)" fill="white"/>
<rect width="3.5" height="3.5" transform="translate(548 322)" fill="white"/>
<rect width="3.5" height="3.5" transform="translate(548 329)" fill="white"/>
<rect width="3.5" height="3.5" transform="translate(540 329)" fill="white"/>
<rect width="3.5" height="3.5" transform="translate(556 322)" fill="white"/>
<rect width="3.5" height="3.5" transform="translate(564 322)" fill="white"/>
<rect width="3.5" height="3.5" transform="translate(564 329)" fill="white"/>
<rect width="3.5" height="3.5" transform="translate(556 329)" fill="white"/>
<rect width="3.5" height="3.5" transform="translate(572 322)" fill="white"/>
<rect width="3.5" height="3.5" transform="translate(580 322)" fill="white"/>
<rect width="3.5" height="3.5" transform="translate(580 329)" fill="white"/>
<rect width="3.5" height="3.5" transform="translate(572 329)" fill="white"/>
<rect width="3.5" height="3.5" transform="translate(588 322)" fill="white"/>
<rect width="3.5" height="3.5" transform="translate(596 322)" fill="white"/>
<rect width="3.5" height="3.5" transform="translate(596 329)" fill="white"/>
<rect width="3.5" height="3.5" transform="translate(588 329)" fill="white"/>
<rect width="3.5" height="3.5" transform="translate(604 322)" fill="white"/>
<rect width="3.5" height="3.5" transform="translate(612 322)" fill="white"/>
<rect width="3.5" height="3.5" transform="translate(612 329)" fill="white"/>
<rect width="3.5" height="3.5" transform="translate(604 329)" fill="white"/>
<rect width="3.5" height="3.5" transform="translate(618 322)" fill="white"/>
<rect width="3.5" height="3.5" transform="translate(626 322)" fill="white"/>
<rect width="3.5" height="3.5" transform="translate(626 329)" fill="white"/>
<rect width="3.5" height="3.5" transform="translate(618 329)" fill="white"/>
<rect width="3.5" height="3.5" transform="translate(634 322)" fill="white"/>
<rect width="3.5" height="3.5" transform="translate(642 322)" fill="white"/>
<rect width="3.5" height="3.5" transform="translate(642 329)" fill="white"/>
<rect width="3.5" height="3.5" transform="translate(634 329)" fill="white"/>
<rect width="3.5" height="3.5" transform="translate(649 322)" fill="white"/>
<rect width="3.5" height="3.5" transform="translate(649 328)" fill="white"/>
<path d="M508 97L483.737 108.698C482.228 109.426 482.228 111.574 483.737 112.302L508 124" stroke="#FF0000" stroke-width="4" stroke-linecap="round"/>
<path d="M548 124L570.581 112.275C572.019 111.528 572.019 109.472 570.581 108.725L548 97" stroke="#FF0000" stroke-width="4" stroke-linecap="round"/>
<path d="M500 110H548.5" stroke="#00FF00" stroke-width="5" stroke-linecap="round"/>
<path d="M505 202L480.737 213.698C479.228 214.426 479.228 216.574 480.737 217.302L505 229" stroke="#FF0000" stroke-width="4" stroke-linecap="round"/>
<path d="M594 229L616.581 217.275C618.019 216.528 618.019 214.472 616.581 213.725L594 202" stroke="#FF0000" stroke-width="4" stroke-linecap="round"/>
<path d="M532 216H580.5" stroke="#00FF00" stroke-width="5" stroke-linecap="round"/>
<path d="M511 239.847L523.553 193" stroke="#FF0000" stroke-width="5" stroke-linecap="round"/>
<path d="M485 148.5H519.5" stroke="#00FF00" stroke-width="5" stroke-linecap="round"/>
<path d="M485 181H566.5" stroke="#00FF00" stroke-width="5" stroke-linecap="round"/>
<path d="M589 181H644" stroke="#00FF00" stroke-width="5" stroke-linecap="round"/>
<path d="M539 149H587.5" stroke="#00FF00" stroke-width="5" stroke-linecap="round"/>
<path d="M604 149H688" stroke="#00FF00" stroke-width="5" stroke-linecap="round"/>
</g>
<path d="M0 583.5H1045.5" stroke="black" stroke-width="5"/>
<path d="M353.335 298.714C355.002 303.714 357.335 315.161 357.335 321.214C357.335 333.714 316.835 372.214 237.335 404.214C236.536 418.512 233.068 443.609 225.221 470.714C222.024 481.757 218.101 493.133 213.335 504.249C207.845 517.053 201.237 529.511 193.335 540.714L189.835 538.561L164.897 523.214L160.835 520.714C163.248 507.961 166.779 488.375 170.288 467.214C175.262 437.218 180.193 404.058 181.835 382.714C182.328 376.3 184.839 370.588 188.835 365.414C191.425 362.06 194.64 358.932 198.335 355.987C229.376 331.242 294.285 319.354 307.335 294.105C321.568 298.78 337.611 301.364 353.335 298.714Z" fill="#D9D9D9"/>
<path d="M307.335 294.105C289.344 288.196 274.244 278.949 266.335 272.714C264.168 274.548 259.635 279.014 258.835 282.214C258.035 285.414 254.167 288.584 254 291.214L233 298.5L177.335 291.214C158.502 289.214 123.135 293.614 132.335 327.214C143.835 369.214 133.335 385.714 139.335 389.714C144.135 392.914 148.002 395.048 149.335 395.714C145.303 397.048 143.85 413.214 170.288 467.214C175.262 437.218 180.193 404.058 181.835 382.714C182.328 376.3 184.839 370.588 188.835 365.414V355.214L198.335 355.987C229.376 331.242 294.285 319.354 307.335 294.105Z" fill="#D9D9D9"/>
<path d="M164.897 523.214L155.335 546.714L177.335 559.214L189.835 538.561L164.897 523.214Z" fill="#FDBCB4"/>
<path d="M177.335 559.214L155.335 546.714L152.335 545.214L143.335 550.214C141.002 550.881 127.435 549.814 121.835 550.214C116.235 550.614 113.502 556.048 115.835 559.214L170.288 583.714L180.835 561.214L177.335 559.214Z" fill="black"/>
<path d="M229.835 469.214L225.221 470.714C222.024 481.757 218.101 493.133 213.335 504.249L239.335 487.714L229.835 469.214Z" fill="black"/>
<path d="M266.335 272.714L266.644 272.322L266.324 272.069L266.012 272.333L266.335 272.714ZM353.335 298.714L353.809 298.556L353.674 298.15L353.252 298.221L353.335 298.714ZM237.335 404.214L237.148 403.751L236.853 403.869L236.836 404.186L237.335 404.214ZM193.335 540.714L193.073 541.14L193.473 541.386L193.744 541.003L193.335 540.714ZM160.835 520.714L160.344 520.621L160.28 520.96L160.573 521.14L160.835 520.714ZM181.835 382.714L181.336 382.676L181.835 382.714ZM307.335 294.105L307.491 293.63L307.335 294.105ZM254 291.214L254.164 291.687L254.478 291.578L254.499 291.246L254 291.214ZM233 298.5L232.935 298.996L233.052 299.011L233.164 298.972L233 298.5ZM177.335 291.214L177.4 290.718L177.388 290.717L177.335 291.214ZM132.335 327.214L132.817 327.082L132.335 327.214ZM139.335 389.714L139.058 390.13L139.335 389.714ZM149.335 395.714L149.492 396.189L150.642 395.809L149.559 395.267L149.335 395.714ZM170.288 467.214L170.781 467.296L170.288 467.214ZM188.835 355.214L188.876 354.716L188.335 354.672V355.214H188.835ZM188.835 365.414L189.231 365.719L188.835 365.414ZM198.335 355.987L198.647 356.378L198.647 356.378L198.335 355.987ZM164.897 523.214L165.16 522.789L165.16 522.789L164.897 523.214ZM152.335 545.214L152.559 544.767L152.323 544.649L152.092 544.777L152.335 545.214ZM180.835 561.214L181.288 561.427L181.483 561.009L181.083 560.78L180.835 561.214ZM170.288 583.714L170.082 584.17L170.531 584.372L170.74 583.927L170.288 583.714ZM115.835 559.214L115.433 559.511L115.51 559.617L115.63 559.67L115.835 559.214ZM143.335 550.214L143.472 550.695L143.528 550.679L143.578 550.651L143.335 550.214ZM229.835 469.214L230.28 468.986L230.085 468.607L229.68 468.739L229.835 469.214ZM239.335 487.714L239.603 488.136L239.988 487.892L239.78 487.486L239.335 487.714ZM352.861 298.872C353.684 301.342 354.679 305.429 355.468 309.661C356.259 313.897 356.835 318.235 356.835 321.214H357.835C357.835 318.14 357.245 313.729 356.451 309.478C355.658 305.223 354.653 301.087 353.809 298.556L352.861 298.872ZM356.835 321.214C356.835 322.655 356.247 324.537 355.001 326.817C353.76 329.089 351.89 331.714 349.385 334.631C344.376 340.463 336.858 347.424 326.846 355.003C306.823 370.16 276.863 387.765 237.148 403.751L237.522 404.678C277.307 388.664 307.347 371.018 327.449 355.801C337.499 348.193 345.075 341.184 350.144 335.282C352.678 332.332 354.594 329.648 355.878 327.297C357.158 324.955 357.835 322.899 357.835 321.214H356.835ZM266.025 273.107C273.977 279.375 289.128 288.652 307.179 294.58L307.491 293.63C289.56 287.741 274.512 278.523 266.644 272.322L266.025 273.107ZM307.179 294.58C321.461 299.271 337.589 301.875 353.418 299.207L353.252 298.221C337.633 300.854 321.675 298.289 307.491 293.63L307.179 294.58ZM266.012 272.333C264.912 273.264 263.218 274.857 261.694 276.625C260.186 278.376 258.781 280.369 258.35 282.093L259.32 282.336C259.689 280.859 260.951 279.02 262.451 277.278C263.936 275.555 265.591 273.999 266.658 273.096L266.012 272.333ZM258.35 282.093C257.978 283.58 256.882 285.087 255.773 286.637C255.232 287.395 254.691 288.16 254.276 288.906C253.863 289.648 253.55 290.416 253.501 291.183L254.499 291.246C254.534 290.697 254.766 290.083 255.15 289.391C255.533 288.703 256.04 287.983 256.587 287.219C257.654 285.726 258.892 284.048 259.32 282.336L258.35 282.093ZM253.836 290.742L232.836 298.028L233.164 298.972L254.164 291.687L253.836 290.742ZM233.065 298.004L177.4 290.719L177.27 291.71L232.935 298.996L233.065 298.004ZM177.388 290.717C167.928 289.713 154.267 290.306 144.098 295.418C139.002 297.979 134.757 301.69 132.381 306.927C130.005 312.165 129.53 318.864 131.853 327.346L132.817 327.082C130.54 318.764 131.036 312.314 133.292 307.34C135.549 302.364 139.597 298.8 144.547 296.311C154.47 291.323 167.909 290.716 177.282 291.712L177.388 290.717ZM131.853 327.346C137.586 348.287 137.834 362.859 137.398 372.692C137.181 377.581 136.788 381.394 136.827 384.175C136.867 386.954 137.331 388.979 139.058 390.13L139.612 389.298C138.339 388.45 137.866 386.912 137.827 384.16C137.788 381.41 138.176 377.723 138.397 372.736C138.836 362.82 138.584 348.142 132.817 327.082L131.853 327.346ZM139.058 390.13C143.872 393.34 147.757 395.484 149.111 396.162L149.559 395.267C148.247 394.611 144.398 392.489 139.612 389.298L139.058 390.13ZM161.326 520.807C163.74 508.05 167.271 488.46 170.781 467.296L169.794 467.133C166.286 488.289 162.756 507.871 160.344 520.621L161.326 520.807ZM170.781 467.296C175.755 437.3 180.69 404.121 182.333 382.753L181.336 382.676C179.696 403.995 174.769 437.136 169.794 467.133L170.781 467.296ZM149.178 395.24C147.871 395.672 146.988 397.215 146.693 399.798C146.394 402.424 146.673 406.319 147.897 411.823C150.347 422.837 156.612 440.42 169.839 467.434L170.737 466.994C157.525 440.009 151.298 422.508 148.873 411.606C147.66 406.151 147.406 402.38 147.687 399.912C147.973 397.401 148.783 396.424 149.492 396.189L149.178 395.24ZM182.333 382.753C182.818 376.452 185.283 370.83 189.231 365.719L188.439 365.108C184.394 370.345 181.839 376.148 181.336 382.676L182.333 382.753ZM188.335 355.214V365.414H189.335V355.214H188.335ZM189.231 365.719C191.791 362.404 194.976 359.304 198.647 356.378L198.023 355.596C194.305 358.56 191.06 361.715 188.439 365.108L189.231 365.719ZM198.647 356.378C214.098 344.06 237.996 334.934 259.777 325.696C270.646 321.085 280.982 316.447 289.421 311.375C297.85 306.309 304.452 300.773 307.779 294.335L306.891 293.876C303.693 300.062 297.287 305.48 288.906 310.518C280.533 315.55 270.255 320.165 259.386 324.775C237.689 333.978 213.612 343.169 198.023 355.596L198.647 356.378ZM188.795 355.713L198.295 356.485L198.376 355.489L188.876 354.716L188.795 355.713ZM165.16 522.789L161.097 520.289L160.573 521.14L164.635 523.64L165.16 522.789ZM164.434 523.026L154.872 546.526L155.798 546.903L165.361 523.403L164.434 523.026ZM155.088 547.149L177.088 559.649L177.582 558.78L155.582 546.28L155.088 547.149ZM193.597 540.289L190.097 538.135L189.573 538.986L193.073 541.14L193.597 540.289ZM190.097 538.135L165.16 522.789L164.635 523.64L189.573 538.986L190.097 538.135ZM177.763 559.473L190.263 538.819L189.407 538.302L176.907 558.955L177.763 559.473ZM152.111 545.662L155.111 547.162L155.559 546.267L152.559 544.767L152.111 545.662ZM177.087 559.648L180.587 561.648L181.083 560.78L177.583 558.78L177.087 559.648ZM180.382 561.002L169.835 583.502L170.74 583.927L181.288 561.427L180.382 561.002ZM170.493 583.258L116.04 558.758L115.63 559.67L170.082 584.17L170.493 583.258ZM116.238 558.918C115.219 557.535 115.274 555.611 116.288 553.936C117.295 552.271 119.232 550.902 121.871 550.713L121.799 549.716C118.838 549.927 116.608 551.474 115.432 553.418C114.263 555.351 114.118 557.727 115.433 559.511L116.238 558.918ZM121.871 550.713C124.638 550.515 129.395 550.68 133.795 550.814C135.985 550.881 138.082 550.939 139.779 550.939C140.627 550.939 141.381 550.925 142 550.889C142.608 550.853 143.123 550.795 143.472 550.695L143.198 549.734C142.963 549.8 142.544 549.855 141.942 549.89C141.35 549.925 140.618 549.939 139.779 549.939C138.1 549.939 136.018 549.881 133.825 549.815C129.458 549.682 124.632 549.513 121.799 549.716L121.871 550.713ZM143.578 550.651L152.578 545.651L152.092 544.777L143.092 549.777L143.578 550.651ZM236.836 404.186C236.039 418.447 232.577 443.506 224.741 470.575L225.701 470.853C233.558 443.712 237.033 418.578 237.834 404.242L236.836 404.186ZM225.376 471.19L229.99 469.69L229.68 468.739L225.066 470.239L225.376 471.19ZM229.39 469.443L238.89 487.943L239.78 487.486L230.28 468.986L229.39 469.443ZM224.741 470.575C221.549 481.602 217.632 492.958 212.875 504.052L213.795 504.446C218.57 493.309 222.5 481.913 225.701 470.853L224.741 470.575ZM212.875 504.052C207.396 516.831 200.804 529.257 192.926 540.426L193.744 541.003C201.67 529.765 208.294 517.275 213.795 504.446L212.875 504.052ZM239.067 487.292L213.067 503.827L213.603 504.671L239.603 488.136L239.067 487.292Z" fill="black"/>
<path d="M301.835 64.2143C305.002 59.881 314.135 52.5143 325.335 57.7143C335.621 62.4901 337.416 63.9762 336.995 64.1869L357.335 60.7143L362.335 64.2143C362.668 52.7143 358.735 29.7144 340.335 29.7144C317.335 29.7144 306.835 23.7142 293.835 64.2143H301.835Z" fill="black"/>
<path d="M301.835 64.2143C304.335 79.7143 308.252 105.114 336.835 100.214C354.335 97.2144 357.335 83.7143 357.335 60.7143L336.995 64.1869C336.958 64.2056 336.903 64.2143 336.835 64.2143L336.995 64.1869C337.416 63.9762 335.621 62.4901 325.335 57.7143C314.135 52.5143 305.002 59.881 301.835 64.2143Z" fill="#FDBCB4"/>
<path d="M336.835 100.214L336.919 100.707L336.835 100.214ZM357.335 60.7143L357.622 60.3047L357.453 60.1869L357.251 60.2214L357.335 60.7143ZM325.335 57.7143L325.124 58.1678L325.124 58.1678L325.335 57.7143ZM336.835 64.2143L336.751 63.7214L336.835 64.7143L336.835 64.2143ZM362.335 64.2143L362.048 64.6239L362.808 65.1557L362.835 64.2288L362.335 64.2143ZM293.835 64.2143L293.359 64.0615L293.149 64.7143H293.835V64.2143ZM301.341 64.2939C302.587 72.0191 304.202 82.3541 309.132 90.132C311.605 94.035 314.924 97.312 319.459 99.2944C323.993 101.276 329.7 101.945 336.919 100.707L336.75 99.7215C329.678 100.934 324.177 100.265 319.86 98.3781C315.543 96.4916 312.367 93.3686 309.976 89.5966C305.177 82.0245 303.583 71.9095 302.329 64.1347L301.341 64.2939ZM336.919 100.707C341.354 99.947 344.901 98.516 347.72 96.4119C350.541 94.3063 352.606 91.5458 354.105 88.167C357.089 81.4351 357.835 72.2125 357.835 60.7143H356.835C356.835 72.2161 356.08 81.2436 353.19 87.7617C351.751 91.0079 349.785 93.6224 347.122 95.6105C344.456 97.6002 341.066 98.9817 336.75 99.7215L336.919 100.707ZM302.239 64.5093C303.777 62.4043 306.784 59.5425 310.768 57.8495C314.736 56.1634 319.67 55.6355 325.124 58.1678L325.546 57.2608C319.8 54.5931 314.567 55.1485 310.377 56.9291C306.203 58.7028 303.06 61.6909 301.431 63.9193L302.239 64.5093ZM357.048 61.1239L362.048 64.6239L362.622 63.8047L357.622 60.3047L357.048 61.1239ZM362.835 64.2288C363.003 58.4306 362.098 49.7242 358.816 42.4463C355.527 35.1541 349.802 29.2144 340.335 29.2144V30.2144C349.268 30.2144 354.71 35.7746 357.904 42.8574C361.105 49.9545 362 58.498 361.835 64.1998L362.835 64.2288ZM340.335 29.2144C337.47 29.2144 334.799 29.1209 332.283 29.0359C329.772 28.951 327.412 28.8743 325.186 28.9097C320.735 28.9805 316.772 29.4992 313.111 31.3296C305.784 34.993 299.859 43.8096 293.359 64.0615L294.311 64.3671C300.81 44.1189 306.635 35.6855 313.559 32.224C317.023 30.4919 320.81 29.9794 325.202 29.9096C327.399 29.8747 329.734 29.9503 332.25 30.0354C334.762 30.1203 337.45 30.2144 340.335 30.2144V29.2144ZM293.835 64.7143H301.835V63.7143H293.835V64.7143ZM325.124 58.1678C330.264 60.5538 333.266 62.111 334.926 63.0929C335.762 63.5873 336.232 63.9212 336.462 64.1294C336.589 64.2438 336.591 64.2747 336.575 64.2345C336.563 64.2064 336.53 64.1086 336.57 63.9811C336.614 63.8429 336.712 63.7697 336.772 63.7398L337.219 64.6341C337.331 64.5779 337.465 64.4683 337.523 64.2828C337.579 64.1081 337.54 63.9522 337.499 63.8539C337.425 63.6735 337.276 63.5164 337.133 63.3872C336.824 63.1083 336.281 62.7326 335.435 62.2322C333.731 61.2244 330.693 59.6506 325.546 57.2608L325.124 58.1678ZM337.079 64.6798L357.419 61.2072L357.251 60.2214L336.911 63.6941L337.079 64.6798ZM336.919 64.7072L337.079 64.6798L336.911 63.6941L336.751 63.7214L336.919 64.7072ZM336.772 63.7398C336.792 63.7296 336.809 63.7237 336.82 63.7202C336.832 63.7167 336.84 63.7152 336.844 63.7145C336.851 63.7133 336.849 63.7143 336.835 63.7143L336.835 64.7143C336.929 64.7143 337.077 64.705 337.219 64.6341L336.772 63.7398Z" fill="black"/>
<path d="M262.835 267.214C280.502 293.214 320.835 301.714 357.335 298.214C366.135 293.014 359.335 281.381 354.835 278.214C359.168 274.548 365.735 266.814 357.335 265.214C372.335 258.714 349.335 253.714 351.335 247.714C347.735 241.314 353.835 210.381 357.335 195.714L388.335 273.214C393.335 283.714 387.335 289.714 396.335 287.714V298.214C399.002 297.714 403.535 298.514 400.335 305.714C398.113 310.714 401.835 309.214 403.835 314.214L404.335 314.175L426.335 312.449L429.335 312.214C429.502 307.381 429.135 297.014 426.335 294.214C426.335 294.214 418.335 292.214 420.335 283.214C412.502 246.381 400.335 173.214 400.335 166.214C400.335 158.214 393.835 139.214 388.335 133.714C384.304 129.683 357.335 118.214 353.335 117.714L351.335 107.214H314.835L310.835 116.214L268.835 112.714L231.335 74.2142C230.835 70.5475 228.435 62.4142 222.835 59.2142C221.335 55.7142 221.335 55.7142 217.335 54.2142C213.335 52.7142 223.335 49.7142 207.835 48.7142L206.335 49.971L192.335 61.7007L189.335 64.2142C190.168 65.0475 191.335 67.3142 189.335 69.7142H195.335C194.168 75.7142 193.235 88.5142 198.835 91.7142C205.835 95.7142 211.335 106.214 211.335 111.214C211.335 116.214 211.835 123.214 218.335 127.214C223.535 130.414 250.502 151.881 263.335 162.214C262.002 169.381 259.735 185.114 261.335 190.714C263.335 197.714 267.835 223.214 268.335 229.714C268.735 234.914 263.502 263.714 262.835 267.214Z" fill="#D9D9D9"/>
<path d="M404.335 314.175C410.335 326.714 405.335 329.714 406.335 335.714C406.855 338.833 413.835 347.714 420.835 344.714L421.082 344.616C426.143 342.593 435.377 338.904 431.835 332.214C428.235 325.414 426.335 315.204 426.335 312.449L404.335 314.175Z" fill="#FDBCB4"/>
<path d="M183.835 50.7142L192.335 61.7007L206.335 49.971C203.335 49.2278 203.335 39.7142 200.835 35.7142C199.835 34.1142 199.526 27.3099 195.335 25.2142C187.335 21.2142 177.835 27.7142 175.335 35.7142C173.335 42.1142 180.168 48.3809 183.835 50.7142Z" fill="#FDBCB4"/>
<path d="M262.835 267.214L262.344 267.121L262.305 267.324L262.421 267.495L262.835 267.214ZM357.335 298.214L357.383 298.712L357.494 298.701L357.589 298.645L357.335 298.214ZM354.835 278.214L354.512 277.833L354.018 278.251L354.547 278.623L354.835 278.214ZM357.335 265.214L357.136 264.755L355.646 265.401L357.241 265.705L357.335 265.214ZM351.335 247.714L351.809 247.872L351.879 247.662L351.771 247.469L351.335 247.714ZM357.335 195.714L357.799 195.529L357.214 194.066L356.849 195.598L357.335 195.714ZM388.335 273.214L387.871 273.4L387.877 273.415L387.884 273.429L388.335 273.214ZM396.335 287.714H396.835V287.091L396.227 287.226L396.335 287.714ZM396.335 298.214H395.835V298.817L396.427 298.706L396.335 298.214ZM400.335 305.714L400.792 305.917L400.335 305.714ZM403.835 314.214L403.371 314.4L403.507 314.741L403.874 314.713L403.835 314.214ZM429.335 312.214L429.374 312.713L429.819 312.678L429.835 312.231L429.335 312.214ZM426.335 294.214L426.689 293.861L426.591 293.763L426.456 293.729L426.335 294.214ZM420.335 283.214L420.823 283.323L420.847 283.217L420.824 283.11L420.335 283.214ZM353.335 117.714L352.844 117.808L352.912 118.165L353.273 118.21L353.335 117.714ZM351.335 107.214L351.826 107.121L351.749 106.714H351.335V107.214ZM314.835 107.214V106.714H314.51L314.378 107.011L314.835 107.214ZM310.835 116.214L310.793 116.712L311.148 116.742L311.292 116.417L310.835 116.214ZM268.835 112.714L268.477 113.063L268.607 113.197L268.793 113.212L268.835 112.714ZM231.335 74.2142L230.84 74.2818L230.862 74.445L230.977 74.5631L231.335 74.2142ZM222.835 59.2142L222.375 59.4112L222.441 59.5652L222.587 59.6483L222.835 59.2142ZM207.835 48.7142L207.867 48.2152L207.667 48.2024L207.514 48.3309L207.835 48.7142ZM189.335 64.2142L189.014 63.8309L188.595 64.1816L188.981 64.5678L189.335 64.2142ZM189.335 69.7142L188.951 69.3941L188.267 70.2142H189.335V69.7142ZM195.335 69.7142L195.826 69.8096L195.942 69.2142H195.335V69.7142ZM198.835 91.7142L198.587 92.1483L198.835 91.7142ZM218.335 127.214L218.597 126.788L218.597 126.788L218.335 127.214ZM263.335 162.214L263.827 162.306L263.881 162.012L263.649 161.825L263.335 162.214ZM261.335 190.714L261.816 190.577L261.335 190.714ZM268.335 229.714L267.836 229.753L268.335 229.714ZM406.335 335.714L406.828 335.632L406.335 335.714ZM420.835 344.714L420.649 344.25L420.638 344.255L420.835 344.714ZM431.835 332.214L431.393 332.448L431.393 332.448L431.835 332.214ZM426.335 312.449L426.296 311.951L426.296 311.951L426.335 312.449ZM421.082 344.616L420.896 344.151L420.896 344.151L421.082 344.616ZM183.835 50.7142L184.23 50.4082L184.177 50.3392L184.103 50.2924L183.835 50.7142ZM175.335 35.7142L174.858 35.5651L174.858 35.5651L175.335 35.7142ZM195.335 25.2142L195.559 24.767L195.335 25.2142ZM200.835 35.7142L201.259 35.4492L200.835 35.7142ZM262.421 267.495C271.341 280.622 285.959 289.299 302.882 294.257C319.808 299.215 339.082 300.467 357.383 298.712L357.287 297.716C339.088 299.462 319.945 298.213 303.163 293.297C286.378 288.38 271.996 279.806 263.249 266.933L262.421 267.495ZM357.589 298.645C359.893 297.283 361.204 295.479 361.771 293.477C362.334 291.488 362.151 289.347 361.552 287.311C360.36 283.255 357.471 279.458 355.123 277.805L354.547 278.623C356.699 280.137 359.46 283.74 360.593 287.593C361.157 289.51 361.305 291.451 360.809 293.205C360.316 294.945 359.177 296.545 357.081 297.784L357.589 298.645ZM355.158 278.596C357.339 276.75 360.137 273.839 361.318 271.14C361.908 269.79 362.14 268.386 361.546 267.183C360.947 265.972 359.596 265.136 357.429 264.723L357.241 265.705C359.274 266.093 360.252 266.823 360.649 267.626C361.051 268.438 360.945 269.497 360.402 270.739C359.316 273.222 356.664 276.012 354.512 277.833L355.158 278.596ZM357.534 265.673C359.433 264.85 360.775 264.033 361.646 263.205C362.525 262.369 362.954 261.492 362.944 260.576C362.935 259.678 362.504 258.846 361.889 258.088C361.273 257.327 360.433 256.592 359.517 255.882C358.599 255.17 357.579 254.462 356.599 253.766C355.613 253.066 354.665 252.377 353.865 251.687C353.06 250.994 352.435 250.325 352.069 249.677C351.711 249.041 351.615 248.454 351.809 247.872L350.861 247.556C350.555 248.474 350.741 249.356 351.198 250.168C351.649 250.966 352.376 251.724 353.212 252.445C354.052 253.169 355.034 253.882 356.02 254.582C357.013 255.287 358.008 255.977 358.904 256.672C359.8 257.367 360.569 258.046 361.113 258.717C361.658 259.391 361.938 260.008 361.944 260.587C361.95 261.147 361.699 261.774 360.957 262.48C360.208 263.192 358.987 263.953 357.136 264.755L357.534 265.673ZM351.771 247.469C351.37 246.756 351.081 245.652 350.912 244.187C350.745 242.732 350.702 240.968 350.761 238.967C350.881 234.965 351.412 230.061 352.167 224.886C353.677 214.539 356.074 203.154 357.821 195.83L356.849 195.598C355.096 202.941 352.693 214.356 351.178 224.742C350.42 229.934 349.883 234.88 349.762 238.937C349.701 240.965 349.744 242.781 349.919 244.301C350.092 245.81 350.4 247.072 350.899 247.959L351.771 247.469ZM356.871 195.9L387.871 273.4L388.799 273.029L357.799 195.529L356.871 195.9ZM387.884 273.429C390.335 278.577 390.081 282.574 390.337 285.2C390.461 286.472 390.719 287.619 391.744 288.203C392.24 288.486 392.861 288.603 393.617 288.596C394.374 288.589 395.303 288.456 396.443 288.202L396.227 287.226C395.117 287.473 394.265 287.59 393.608 287.596C392.949 287.602 392.524 287.497 392.239 287.334C391.701 287.028 391.459 286.394 391.333 285.103C391.089 282.605 391.335 278.352 388.786 272.999L387.884 273.429ZM395.835 287.714V298.214H396.835V287.714H395.835ZM396.427 298.706C397.05 298.589 397.775 298.55 398.458 298.657C399.143 298.764 399.75 299.011 400.186 299.435C401.014 300.24 401.458 301.957 399.878 305.511L400.792 305.917C402.412 302.272 402.189 299.988 400.884 298.718C400.253 298.105 399.427 297.796 398.612 297.669C397.795 297.541 396.954 297.589 396.243 297.723L396.427 298.706ZM399.878 305.511C399.312 306.785 399.084 307.727 399.166 308.501C399.251 309.309 399.665 309.849 400.154 310.323C401.112 311.252 402.422 312.028 403.371 314.4L404.299 314.028C403.248 311.4 401.697 310.427 400.85 309.605C400.436 309.204 400.21 308.869 400.16 308.396C400.107 307.888 400.247 307.144 400.792 305.917L399.878 305.511ZM429.835 312.231C429.919 309.796 429.869 305.97 429.444 302.393C429.232 300.605 428.924 298.865 428.488 297.387C428.056 295.923 427.479 294.651 426.689 293.861L425.981 294.568C426.591 295.177 427.11 296.251 427.529 297.67C427.943 299.074 428.242 300.753 428.451 302.511C428.868 306.025 428.918 309.799 428.835 312.197L429.835 312.231ZM426.335 294.214C426.456 293.729 426.457 293.729 426.457 293.729C426.457 293.729 426.457 293.729 426.457 293.729C426.457 293.729 426.457 293.729 426.457 293.729C426.457 293.729 426.456 293.729 426.455 293.729C426.452 293.728 426.448 293.727 426.442 293.725C426.43 293.722 426.411 293.717 426.385 293.709C426.333 293.694 426.255 293.67 426.155 293.637C425.954 293.569 425.665 293.462 425.324 293.306C424.639 292.994 423.751 292.489 422.925 291.723C421.3 290.213 419.863 287.642 420.823 283.323L419.847 283.106C418.807 287.787 420.37 290.715 422.245 292.456C423.169 293.314 424.156 293.872 424.909 294.216C425.286 294.388 425.607 294.508 425.836 294.585C425.95 294.623 426.042 294.651 426.106 294.67C426.139 294.679 426.164 294.686 426.182 294.691C426.191 294.693 426.198 294.695 426.204 294.697C426.206 294.697 426.208 294.698 426.21 294.698C426.211 294.699 426.212 294.699 426.212 294.699C426.213 294.699 426.213 294.699 426.213 294.699C426.213 294.699 426.214 294.699 426.335 294.214ZM420.824 283.11C416.91 264.704 411.911 237.212 407.891 213.443C405.88 201.56 404.115 190.61 402.853 182.195C402.222 177.987 401.716 174.415 401.369 171.678C401.02 168.927 400.835 167.051 400.835 166.214H399.835C399.835 167.127 400.03 169.069 400.377 171.804C400.726 174.551 401.232 178.132 401.864 182.343C403.128 190.766 404.894 201.723 406.905 213.61C410.926 237.383 415.927 264.891 419.846 283.318L420.824 283.11ZM400.835 166.214C400.835 162.125 399.185 155.308 396.868 148.858C395.706 145.623 394.37 142.462 392.975 139.758C391.584 137.064 390.118 134.791 388.689 133.361L387.981 134.068C389.302 135.388 390.711 137.552 392.086 140.217C393.457 142.873 394.776 145.993 395.927 149.196C398.235 155.62 399.835 162.304 399.835 166.214H400.835ZM388.689 133.361C388.141 132.814 387.237 132.168 386.101 131.465C384.956 130.756 383.545 129.969 381.96 129.141C378.789 127.484 374.905 125.652 371.026 123.933C367.147 122.213 363.266 120.603 360.103 119.391C358.522 118.785 357.116 118.278 355.978 117.905C354.852 117.536 353.951 117.287 353.397 117.218L353.273 118.21C353.719 118.266 354.536 118.485 355.666 118.855C356.784 119.221 358.173 119.723 359.745 120.325C362.89 121.53 366.754 123.133 370.621 124.847C374.488 126.561 378.352 128.384 381.497 130.027C383.069 130.849 384.458 131.623 385.575 132.315C386.7 133.012 387.521 133.607 387.981 134.068L388.689 133.361ZM353.826 117.621L351.826 107.121L350.844 107.308L352.844 117.808L353.826 117.621ZM351.335 106.714H314.835V107.714H351.335V106.714ZM314.378 107.011L310.378 116.011L311.292 116.417L315.292 107.417L314.378 107.011ZM310.877 115.716L268.877 112.216L268.793 113.212L310.793 116.712L310.877 115.716ZM269.193 112.365L231.693 73.8653L230.977 74.5631L268.477 113.063L269.193 112.365ZM231.83 74.1467C231.574 72.2679 230.836 69.2681 229.45 66.3261C228.066 63.39 226.01 60.4524 223.083 58.7801L222.587 59.6483C225.26 61.1761 227.204 63.9051 228.545 66.7523C229.884 69.5936 230.596 72.4939 230.84 74.2818L231.83 74.1467ZM223.295 59.0172C222.562 57.3084 222.145 56.3093 221.359 55.5942C220.961 55.2324 220.487 54.9568 219.877 54.6807C219.273 54.4066 218.504 54.1187 217.511 53.746L217.159 54.6824C218.166 55.0597 218.897 55.3344 219.465 55.5915C220.027 55.8466 220.397 56.071 220.686 56.3342C221.275 56.8691 221.608 57.62 222.375 59.4112L223.295 59.0172ZM217.511 53.746C217.055 53.5751 216.895 53.4163 216.84 53.3267C216.798 53.2579 216.779 53.1692 216.827 52.9892C216.88 52.7866 216.983 52.58 217.115 52.2811C217.234 52.0143 217.375 51.671 217.397 51.3061C217.42 50.9073 217.3 50.5076 216.958 50.1519C216.637 49.8181 216.143 49.5453 215.457 49.3113C214.085 48.843 211.747 48.4656 207.867 48.2152L207.803 49.2132C211.673 49.4629 213.897 49.8354 215.134 50.2577C215.754 50.469 216.076 50.6767 216.237 50.8449C216.378 50.9911 216.406 51.1148 216.398 51.2473C216.389 51.4136 216.319 51.6094 216.201 51.8759C216.097 52.1101 215.939 52.4309 215.859 52.7361C215.773 53.0639 215.751 53.4634 215.988 53.8498C216.212 54.2152 216.615 54.4783 217.159 54.6824L217.511 53.746ZM188.981 64.5678C189.334 64.9199 189.775 65.6004 189.903 66.451C190.027 67.2791 189.861 68.3026 188.951 69.3941L189.719 70.0343C190.809 68.7259 191.059 67.416 190.892 66.3024C190.728 65.2113 190.17 64.3419 189.689 63.8607L188.981 64.5678ZM189.335 70.2142C189.341 70.2142 189.348 70.2142 189.354 70.2142C189.36 70.2142 189.366 70.2142 189.372 70.2142C189.379 70.2142 189.385 70.2142 189.391 70.2142C189.397 70.2142 189.404 70.2142 189.41 70.2142C189.416 70.2142 189.422 70.2142 189.428 70.2142C189.435 70.2142 189.441 70.2142 189.447 70.2142C189.453 70.2142 189.459 70.2142 189.466 70.2142C189.472 70.2142 189.478 70.2142 189.484 70.2142C189.49 70.2142 189.497 70.2142 189.503 70.2142C189.509 70.2142 189.515 70.2142 189.521 70.2142C189.527 70.2142 189.534 70.2142 189.54 70.2142C189.546 70.2142 189.552 70.2142 189.558 70.2142C189.564 70.2142 189.571 70.2142 189.577 70.2142C189.583 70.2142 189.589 70.2142 189.595 70.2142C189.601 70.2142 189.607 70.2142 189.613 70.2142C189.62 70.2142 189.626 70.2142 189.632 70.2142C189.638 70.2142 189.644 70.2142 189.65 70.2142C189.656 70.2142 189.662 70.2142 189.669 70.2142C189.675 70.2142 189.681 70.2142 189.687 70.2142C189.693 70.2142 189.699 70.2142 189.705 70.2142C189.711 70.2142 189.717 70.2142 189.723 70.2142C189.729 70.2142 189.735 70.2142 189.742 70.2142C189.748 70.2142 189.754 70.2142 189.76 70.2142C189.766 70.2142 189.772 70.2142 189.778 70.2142C189.784 70.2142 189.79 70.2142 189.796 70.2142C189.802 70.2142 189.808 70.2142 189.814 70.2142C189.82 70.2142 189.826 70.2142 189.832 70.2142C189.838 70.2142 189.844 70.2142 189.85 70.2142C189.856 70.2142 189.862 70.2142 189.868 70.2142C189.874 70.2142 189.88 70.2142 189.886 70.2142C189.892 70.2142 189.898 70.2142 189.904 70.2142C189.91 70.2142 189.916 70.2142 189.922 70.2142C189.928 70.2142 189.934 70.2142 189.94 70.2142C189.946 70.2142 189.952 70.2142 189.958 70.2142C189.964 70.2142 189.97 70.2142 189.976 70.2142C189.982 70.2142 189.988 70.2142 189.994 70.2142C190 70.2142 190.006 70.2142 190.012 70.2142C190.018 70.2142 190.024 70.2142 190.03 70.2142C190.036 70.2142 190.042 70.2142 190.048 70.2142C190.053 70.2142 190.059 70.2142 190.065 70.2142C190.071 70.2142 190.077 70.2142 190.083 70.2142C190.089 70.2142 190.095 70.2142 190.101 70.2142C190.107 70.2142 190.113 70.2142 190.118 70.2142C190.124 70.2142 190.13 70.2142 190.136 70.2142C190.142 70.2142 190.148 70.2142 190.154 70.2142C190.16 70.2142 190.166 70.2142 190.171 70.2142C190.177 70.2142 190.183 70.2142 190.189 70.2142C190.195 70.2142 190.201 70.2142 190.207 70.2142C190.212 70.2142 190.218 70.2142 190.224 70.2142C190.23 70.2142 190.236 70.2142 190.242 70.2142C190.247 70.2142 190.253 70.2142 190.259 70.2142C190.265 70.2142 190.271 70.2142 190.277 70.2142C190.282 70.2142 190.288 70.2142 190.294 70.2142C190.3 70.2142 190.306 70.2142 190.311 70.2142C190.317 70.2142 190.323 70.2142 190.329 70.2142C190.335 70.2142 190.34 70.2142 190.346 70.2142C190.352 70.2142 190.358 70.2142 190.364 70.2142C190.369 70.2142 190.375 70.2142 190.381 70.2142C190.387 70.2142 190.392 70.2142 190.398 70.2142C190.404 70.2142 190.41 70.2142 190.415 70.2142C190.421 70.2142 190.427 70.2142 190.433 70.2142C190.438 70.2142 190.444 70.2142 190.45 70.2142C190.456 70.2142 190.461 70.2142 190.467 70.2142C190.473 70.2142 190.479 70.2142 190.484 70.2142C190.49 70.2142 190.496 70.2142 190.501 70.2142C190.507 70.2142 190.513 70.2142 190.518 70.2142C190.524 70.2142 190.53 70.2142 190.536 70.2142C190.541 70.2142 190.547 70.2142 190.553 70.2142C190.558 70.2142 190.564 70.2142 190.57 70.2142C190.575 70.2142 190.581 70.2142 190.587 70.2142C190.592 70.2142 190.598 70.2142 190.604 70.2142C190.609 70.2142 190.615 70.2142 190.621 70.2142C190.626 70.2142 190.632 70.2142 190.638 70.2142C190.643 70.2142 190.649 70.2142 190.654 70.2142C190.66 70.2142 190.666 70.2142 190.671 70.2142C190.677 70.2142 190.683 70.2142 190.688 70.2142C190.694 70.2142 190.699 70.2142 190.705 70.2142C190.711 70.2142 190.716 70.2142 190.722 70.2142C190.727 70.2142 190.733 70.2142 190.739 70.2142C190.744 70.2142 190.75 70.2142 190.755 70.2142C190.761 70.2142 190.767 70.2142 190.772 70.2142C190.778 70.2142 190.783 70.2142 190.789 70.2142C190.794 70.2142 190.8 70.2142 190.805 70.2142C190.811 70.2142 190.817 70.2142 190.822 70.2142C190.828 70.2142 190.833 70.2142 190.839 70.2142C190.844 70.2142 190.85 70.2142 190.855 70.2142C190.861 70.2142 190.866 70.2142 190.872 70.2142C190.877 70.2142 190.883 70.2142 190.888 70.2142C190.894 70.2142 190.899 70.2142 190.905 70.2142C190.91 70.2142 190.916 70.2142 190.921 70.2142C190.927 70.2142 190.932 70.2142 190.938 70.2142C190.943 70.2142 190.949 70.2142 190.954 70.2142C190.96 70.2142 190.965 70.2142 190.971 70.2142C190.976 70.2142 190.982 70.2142 190.987 70.2142C190.993 70.2142 190.998 70.2142 191.004 70.2142C191.009 70.2142 191.014 70.2142 191.02 70.2142C191.025 70.2142 191.031 70.2142 191.036 70.2142C191.042 70.2142 191.047 70.2142 191.052 70.2142C191.058 70.2142 191.063 70.2142 191.069 70.2142C191.074 70.2142 191.08 70.2142 191.085 70.2142C191.09 70.2142 191.096 70.2142 191.101 70.2142C191.107 70.2142 191.112 70.2142 191.117 70.2142C191.123 70.2142 191.128 70.2142 191.133 70.2142C191.139 70.2142 191.144 70.2142 191.15 70.2142C191.155 70.2142 191.16 70.2142 191.166 70.2142C191.171 70.2142 191.176 70.2142 191.182 70.2142C191.187 70.2142 191.193 70.2142 191.198 70.2142C191.203 70.2142 191.209 70.2142 191.214 70.2142C191.219 70.2142 191.225 70.2142 191.23 70.2142C191.235 70.2142 191.241 70.2142 191.246 70.2142C191.251 70.2142 191.256 70.2142 191.262 70.2142C191.267 70.2142 191.272 70.2142 191.278 70.2142C191.283 70.2142 191.288 70.2142 191.294 70.2142C191.299 70.2142 191.304 70.2142 191.309 70.2142C191.315 70.2142 191.32 70.2142 191.325 70.2142C191.331 70.2142 191.336 70.2142 191.341 70.2142C191.346 70.2142 191.352 70.2142 191.357 70.2142C191.362 70.2142 191.367 70.2142 191.373 70.2142C191.378 70.2142 191.383 70.2142 191.388 70.2142C191.394 70.2142 191.399 70.2142 191.404 70.2142C191.409 70.2142 191.415 70.2142 191.42 70.2142C191.425 70.2142 191.43 70.2142 191.435 70.2142C191.441 70.2142 191.446 70.2142 191.451 70.2142C191.456 70.2142 191.461 70.2142 191.467 70.2142C191.472 70.2142 191.477 70.2142 191.482 70.2142C191.487 70.2142 191.493 70.2142 191.498 70.2142C191.503 70.2142 191.508 70.2142 191.513 70.2142C191.518 70.2142 191.524 70.2142 191.529 70.2142C191.534 70.2142 191.539 70.2142 191.544 70.2142C191.549 70.2142 191.555 70.2142 191.56 70.2142C191.565 70.2142 191.57 70.2142 191.575 70.2142C191.58 70.2142 191.585 70.2142 191.59 70.2142C191.596 70.2142 191.601 70.2142 191.606 70.2142C191.611 70.2142 191.616 70.2142 191.621 70.2142C191.626 70.2142 191.631 70.2142 191.636 70.2142C191.642 70.2142 191.647 70.2142 191.652 70.2142C191.657 70.2142 191.662 70.2142 191.667 70.2142C191.672 70.2142 191.677 70.2142 191.682 70.2142C191.687 70.2142 191.692 70.2142 191.697 70.2142C191.702 70.2142 191.708 70.2142 191.713 70.2142C191.718 70.2142 191.723 70.2142 191.728 70.2142C191.733 70.2142 191.738 70.2142 191.743 70.2142C191.748 70.2142 191.753 70.2142 191.758 70.2142C191.763 70.2142 191.768 70.2142 191.773 70.2142C191.778 70.2142 191.783 70.2142 191.788 70.2142C191.793 70.2142 191.798 70.2142 191.803 70.2142C191.808 70.2142 191.813 70.2142 191.818 70.2142C191.823 70.2142 191.828 70.2142 191.833 70.2142C191.838 70.2142 191.843 70.2142 191.848 70.2142C191.853 70.2142 191.858 70.2142 191.863 70.2142C191.868 70.2142 191.873 70.2142 191.878 70.2142C191.883 70.2142 191.888 70.2142 191.893 70.2142C191.897 70.2142 191.902 70.2142 191.907 70.2142C191.912 70.2142 191.917 70.2142 191.922 70.2142C191.927 70.2142 191.932 70.2142 191.937 70.2142C191.942 70.2142 191.947 70.2142 191.952 70.2142C191.957 70.2142 191.961 70.2142 191.966 70.2142C191.971 70.2142 191.976 70.2142 191.981 70.2142C191.986 70.2142 191.991 70.2142 191.996 70.2142C192.001 70.2142 192.005 70.2142 192.01 70.2142C192.015 70.2142 192.02 70.2142 192.025 70.2142C192.03 70.2142 192.035 70.2142 192.039 70.2142C192.044 70.2142 192.049 70.2142 192.054 70.2142C192.059 70.2142 192.064 70.2142 192.069 70.2142C192.073 70.2142 192.078 70.2142 192.083 70.2142C192.088 70.2142 192.093 70.2142 192.097 70.2142C192.102 70.2142 192.107 70.2142 192.112 70.2142C192.117 70.2142 192.122 70.2142 192.126 70.2142C192.131 70.2142 192.136 70.2142 192.141 70.2142C192.146 70.2142 192.15 70.2142 192.155 70.2142C192.16 70.2142 192.165 70.2142 192.169 70.2142C192.174 70.2142 192.179 70.2142 192.184 70.2142C192.188 70.2142 192.193 70.2142 192.198 70.2142C192.203 70.2142 192.207 70.2142 192.212 70.2142C192.217 70.2142 192.222 70.2142 192.226 70.2142C192.231 70.2142 192.236 70.2142 192.241 70.2142C192.245 70.2142 192.25 70.2142 192.255 70.2142C192.26 70.2142 192.264 70.2142 192.269 70.2142C192.274 70.2142 192.278 70.2142 192.283 70.2142C192.288 70.2142 192.292 70.2142 192.297 70.2142C192.302 70.2142 192.306 70.2142 192.311 70.2142C192.316 70.2142 192.321 70.2142 192.325 70.2142C192.33 70.2142 192.335 70.2142 192.339 70.2142C192.344 70.2142 192.349 70.2142 192.353 70.2142C192.358 70.2142 192.362 70.2142 192.367 70.2142C192.372 70.2142 192.376 70.2142 192.381 70.2142C192.386 70.2142 192.39 70.2142 192.395 70.2142C192.4 70.2142 192.404 70.2142 192.409 70.2142C192.413 70.2142 192.418 70.2142 192.423 70.2142C192.427 70.2142 192.432 70.2142 192.436 70.2142C192.441 70.2142 192.446 70.2142 192.45 70.2142C192.455 70.2142 192.459 70.2142 192.464 70.2142C192.468 70.2142 192.473 70.2142 192.478 70.2142C192.482 70.2142 192.487 70.2142 192.491 70.2142C192.496 70.2142 192.5 70.2142 192.505 70.2142C192.51 70.2142 192.514 70.2142 192.519 70.2142C192.523 70.2142 192.528 70.2142 192.532 70.2142C192.537 70.2142 192.541 70.2142 192.546 70.2142C192.55 70.2142 192.555 70.2142 192.559 70.2142C192.564 70.2142 192.568 70.2142 192.573 70.2142C192.577 70.2142 192.582 70.2142 192.586 70.2142C192.591 70.2142 192.595 70.2142 192.6 70.2142C192.604 70.2142 192.609 70.2142 192.613 70.2142C192.618 70.2142 192.622 70.2142 192.627 70.2142C192.631 70.2142 192.636 70.2142 192.64 70.2142C192.645 70.2142 192.649 70.2142 192.653 70.2142C192.658 70.2142 192.662 70.2142 192.667 70.2142C192.671 70.2142 192.676 70.2142 192.68 70.2142C192.684 70.2142 192.689 70.2142 192.693 70.2142C192.698 70.2142 192.702 70.2142 192.707 70.2142C192.711 70.2142 192.715 70.2142 192.72 70.2142C192.724 70.2142 192.729 70.2142 192.733 70.2142C192.737 70.2142 192.742 70.2142 192.746 70.2142C192.751 70.2142 192.755 70.2142 192.759 70.2142C192.764 70.2142 192.768 70.2142 192.772 70.2142C192.777 70.2142 192.781 70.2142 192.785 70.2142C192.79 70.2142 192.794 70.2142 192.798 70.2142C192.803 70.2142 192.807 70.2142 192.812 70.2142C192.816 70.2142 192.82 70.2142 192.824 70.2142C192.829 70.2142 192.833 70.2142 192.837 70.2142C192.842 70.2142 192.846 70.2142 192.85 70.2142C192.855 70.2142 192.859 70.2142 192.863 70.2142C192.868 70.2142 192.872 70.2142 192.876 70.2142C192.88 70.2142 192.885 70.2142 192.889 70.2142C192.893 70.2142 192.898 70.2142 192.902 70.2142C192.906 70.2142 192.91 70.2142 192.915 70.2142C192.919 70.2142 192.923 70.2142 192.927 70.2142C192.932 70.2142 192.936 70.2142 192.94 70.2142C192.944 70.2142 192.949 70.2142 192.953 70.2142C192.957 70.2142 192.961 70.2142 192.965 70.2142C192.97 70.2142 192.974 70.2142 192.978 70.2142C192.982 70.2142 192.987 70.2142 192.991 70.2142C192.995 70.2142 192.999 70.2142 193.003 70.2142C193.008 70.2142 193.012 70.2142 193.016 70.2142C193.02 70.2142 193.024 70.2142 193.028 70.2142C193.033 70.2142 193.037 70.2142 193.041 70.2142C193.045 70.2142 193.049 70.2142 193.053 70.2142C193.058 70.2142 193.062 70.2142 193.066 70.2142C193.07 70.2142 193.074 70.2142 193.078 70.2142C193.082 70.2142 193.087 70.2142 193.091 70.2142C193.095 70.2142 193.099 70.2142 193.103 70.2142C193.107 70.2142 193.111 70.2142 193.115 70.2142C193.119 70.2142 193.124 70.2142 193.128 70.2142C193.132 70.2142 193.136 70.2142 193.14 70.2142C193.144 70.2142 193.148 70.2142 193.152 70.2142C193.156 70.2142 193.16 70.2142 193.164 70.2142C193.168 70.2142 193.173 70.2142 193.177 70.2142C193.181 70.2142 193.185 70.2142 193.189 70.2142C193.193 70.2142 193.197 70.2142 193.201 70.2142C193.205 70.2142 193.209 70.2142 193.213 70.2142C193.217 70.2142 193.221 70.2142 193.225 70.2142C193.229 70.2142 193.233 70.2142 193.237 70.2142C193.241 70.2142 193.245 70.2142 193.249 70.2142C193.253 70.2142 193.257 70.2142 193.261 70.2142C193.265 70.2142 193.269 70.2142 193.273 70.2142C193.277 70.2142 193.281 70.2142 193.285 70.2142C193.289 70.2142 193.293 70.2142 193.297 70.2142C193.301 70.2142 193.305 70.2142 193.309 70.2142C193.313 70.2142 193.317 70.2142 193.321 70.2142C193.325 70.2142 193.328 70.2142 193.332 70.2142C193.336 70.2142 193.34 70.2142 193.344 70.2142C193.348 70.2142 193.352 70.2142 193.356 70.2142C193.36 70.2142 193.364 70.2142 193.368 70.2142C193.372 70.2142 193.375 70.2142 193.379 70.2142C193.383 70.2142 193.387 70.2142 193.391 70.2142C193.395 70.2142 193.399 70.2142 193.403 70.2142C193.407 70.2142 193.41 70.2142 193.414 70.2142C193.418 70.2142 193.422 70.2142 193.426 70.2142C193.43 70.2142 193.434 70.2142 193.437 70.2142C193.441 70.2142 193.445 70.2142 193.449 70.2142C193.453 70.2142 193.457 70.2142 193.46 70.2142C193.464 70.2142 193.468 70.2142 193.472 70.2142C193.476 70.2142 193.48 70.2142 193.483 70.2142C193.487 70.2142 193.491 70.2142 193.495 70.2142C193.499 70.2142 193.502 70.2142 193.506 70.2142C193.51 70.2142 193.514 70.2142 193.517 70.2142C193.521 70.2142 193.525 70.2142 193.529 70.2142C193.533 70.2142 193.536 70.2142 193.54 70.2142C193.544 70.2142 193.548 70.2142 193.551 70.2142C193.555 70.2142 193.559 70.2142 193.563 70.2142C193.566 70.2142 193.57 70.2142 193.574 70.2142C193.577 70.2142 193.581 70.2142 193.585 70.2142C193.589 70.2142 193.592 70.2142 193.596 70.2142C193.6 70.2142 193.603 70.2142 193.607 70.2142C193.611 70.2142 193.615 70.2142 193.618 70.2142C193.622 70.2142 193.626 70.2142 193.629 70.2142C193.633 70.2142 193.637 70.2142 193.64 70.2142C193.644 70.2142 193.648 70.2142 193.651 70.2142C193.655 70.2142 193.659 70.2142 193.662 70.2142C193.666 70.2142 193.67 70.2142 193.673 70.2142C193.677 70.2142 193.68 70.2142 193.684 70.2142C193.688 70.2142 193.691 70.2142 193.695 70.2142C193.699 70.2142 193.702 70.2142 193.706 70.2142C193.709 70.2142 193.713 70.2142 193.717 70.2142C193.72 70.2142 193.724 70.2142 193.727 70.2142C193.731 70.2142 193.735 70.2142 193.738 70.2142C193.742 70.2142 193.745 70.2142 193.749 70.2142C193.752 70.2142 193.756 70.2142 193.76 70.2142C193.763 70.2142 193.767 70.2142 193.77 70.2142C193.774 70.2142 193.777 70.2142 193.781 70.2142C193.784 70.2142 193.788 70.2142 193.792 70.2142C193.795 70.2142 193.799 70.2142 193.802 70.2142C193.806 70.2142 193.809 70.2142 193.813 70.2142C193.816 70.2142 193.82 70.2142 193.823 70.2142C193.827 70.2142 193.83 70.2142 193.834 70.2142C193.837 70.2142 193.841 70.2142 193.844 70.2142C193.848 70.2142 193.851 70.2142 193.855 70.2142C193.858 70.2142 193.861 70.2142 193.865 70.2142C193.868 70.2142 193.872 70.2142 193.875 70.2142C193.879 70.2142 193.882 70.2142 193.886 70.2142C193.889 70.2142 193.893 70.2142 193.896 70.2142C193.899 70.2142 193.903 70.2142 193.906 70.2142C193.91 70.2142 193.913 70.2142 193.916 70.2142C193.92 70.2142 193.923 70.2142 193.927 70.2142C193.93 70.2142 193.933 70.2142 193.937 70.2142C193.94 70.2142 193.944 70.2142 193.947 70.2142C193.95 70.2142 193.954 70.2142 193.957 70.2142C193.961 70.2142 193.964 70.2142 193.967 70.2142C193.971 70.2142 193.974 70.2142 193.977 70.2142C193.981 70.2142 193.984 70.2142 193.987 70.2142C193.991 70.2142 193.994 70.2142 193.997 70.2142C194.001 70.2142 194.004 70.2142 194.007 70.2142C194.011 70.2142 194.014 70.2142 194.017 70.2142C194.021 70.2142 194.024 70.2142 194.027 70.2142C194.03 70.2142 194.034 70.2142 194.037 70.2142C194.04 70.2142 194.044 70.2142 194.047 70.2142C194.05 70.2142 194.053 70.2142 194.057 70.2142C194.06 70.2142 194.063 70.2142 194.067 70.2142C194.07 70.2142 194.073 70.2142 194.076 70.2142C194.08 70.2142 194.083 70.2142 194.086 70.2142C194.089 70.2142 194.093 70.2142 194.096 70.2142C194.099 70.2142 194.102 70.2142 194.105 70.2142C194.109 70.2142 194.112 70.2142 194.115 70.2142C194.118 70.2142 194.121 70.2142 194.125 70.2142C194.128 70.2142 194.131 70.2142 194.134 70.2142C194.137 70.2142 194.141 70.2142 194.144 70.2142C194.147 70.2142 194.15 70.2142 194.153 70.2142C194.157 70.2142 194.16 70.2142 194.163 70.2142C194.166 70.2142 194.169 70.2142 194.172 70.2142C194.175 70.2142 194.179 70.2142 194.182 70.2142C194.185 70.2142 194.188 70.2142 194.191 70.2142C194.194 70.2142 194.197 70.2142 194.201 70.2142C194.204 70.2142 194.207 70.2142 194.21 70.2142C194.213 70.2142 194.216 70.2142 194.219 70.2142C194.222 70.2142 194.225 70.2142 194.228 70.2142C194.232 70.2142 194.235 70.2142 194.238 70.2142C194.241 70.2142 194.244 70.2142 194.247 70.2142C194.25 70.2142 194.253 70.2142 194.256 70.2142C194.259 70.2142 194.262 70.2142 194.265 70.2142C194.268 70.2142 194.271 70.2142 194.274 70.2142C194.277 70.2142 194.28 70.2142 194.283 70.2142C194.286 70.2142 194.29 70.2142 194.293 70.2142C194.296 70.2142 194.299 70.2142 194.302 70.2142C194.305 70.2142 194.308 70.2142 194.311 70.2142C194.314 70.2142 194.317 70.2142 194.32 70.2142C194.323 70.2142 194.325 70.2142 194.328 70.2142C194.331 70.2142 194.334 70.2142 194.337 70.2142C194.34 70.2142 194.343 70.2142 194.346 70.2142C194.349 70.2142 194.352 70.2142 194.355 70.2142C194.358 70.2142 194.361 70.2142 194.364 70.2142C194.367 70.2142 194.37 70.2142 194.373 70.2142C194.376 70.2142 194.379 70.2142 194.381 70.2142C194.384 70.2142 194.387 70.2142 194.39 70.2142C194.393 70.2142 194.396 70.2142 194.399 70.2142C194.402 70.2142 194.405 70.2142 194.408 70.2142C194.41 70.2142 194.413 70.2142 194.416 70.2142C194.419 70.2142 194.422 70.2142 194.425 70.2142C194.428 70.2142 194.431 70.2142 194.433 70.2142C194.436 70.2142 194.439 70.2142 194.442 70.2142C194.445 70.2142 194.448 70.2142 194.45 70.2142C194.453 70.2142 194.456 70.2142 194.459 70.2142C194.462 70.2142 194.465 70.2142 194.467 70.2142C194.47 70.2142 194.473 70.2142 194.476 70.2142C194.479 70.2142 194.481 70.2142 194.484 70.2142C194.487 70.2142 194.49 70.2142 194.492 70.2142C194.495 70.2142 194.498 70.2142 194.501 70.2142C194.504 70.2142 194.506 70.2142 194.509 70.2142C194.512 70.2142 194.515 70.2142 194.517 70.2142C194.52 70.2142 194.523 70.2142 194.526 70.2142C194.528 70.2142 194.531 70.2142 194.534 70.2142C194.537 70.2142 194.539 70.2142 194.542 70.2142C194.545 70.2142 194.547 70.2142 194.55 70.2142C194.553 70.2142 194.555 70.2142 194.558 70.2142C194.561 70.2142 194.564 70.2142 194.566 70.2142C194.569 70.2142 194.572 70.2142 194.574 70.2142C194.577 70.2142 194.58 70.2142 194.582 70.2142C194.585 70.2142 194.588 70.2142 194.59 70.2142C194.593 70.2142 194.596 70.2142 194.598 70.2142C194.601 70.2142 194.604 70.2142 194.606 70.2142C194.609 70.2142 194.611 70.2142 194.614 70.2142C194.617 70.2142 194.619 70.2142 194.622 70.2142C194.624 70.2142 194.627 70.2142 194.63 70.2142C194.632 70.2142 194.635 70.2142 194.637 70.2142C194.64 70.2142 194.643 70.2142 194.645 70.2142C194.648 70.2142 194.65 70.2142 194.653 70.2142C194.656 70.2142 194.658 70.2142 194.661 70.2142C194.663 70.2142 194.666 70.2142 194.668 70.2142C194.671 70.2142 194.673 70.2142 194.676 70.2142C194.679 70.2142 194.681 70.2142 194.684 70.2142C194.686 70.2142 194.689 70.2142 194.691 70.2142C194.694 70.2142 194.696 70.2142 194.699 70.2142C194.701 70.2142 194.704 70.2142 194.706 70.2142C194.709 70.2142 194.711 70.2142 194.714 70.2142C194.716 70.2142 194.719 70.2142 194.721 70.2142C194.724 70.2142 194.726 70.2142 194.729 70.2142C194.731 70.2142 194.733 70.2142 194.736 70.2142C194.738 70.2142 194.741 70.2142 194.743 70.2142C194.746 70.2142 194.748 70.2142 194.751 70.2142C194.753 70.2142 194.755 70.2142 194.758 70.2142C194.76 70.2142 194.763 70.2142 194.765 70.2142C194.768 70.2142 194.77 70.2142 194.772 70.2142C194.775 70.2142 194.777 70.2142 194.78 70.2142C194.782 70.2142 194.784 70.2142 194.787 70.2142C194.789 70.2142 194.791 70.2142 194.794 70.2142C194.796 70.2142 194.799 70.2142 194.801 70.2142C194.803 70.2142 194.806 70.2142 194.808 70.2142C194.81 70.2142 194.813 70.2142 194.815 70.2142C194.817 70.2142 194.82 70.2142 194.822 70.2142C194.824 70.2142 194.827 70.2142 194.829 70.2142C194.831 70.2142 194.834 70.2142 194.836 70.2142C194.838 70.2142 194.84 70.2142 194.843 70.2142C194.845 70.2142 194.847 70.2142 194.85 70.2142C194.852 70.2142 194.854 70.2142 194.856 70.2142C194.859 70.2142 194.861 70.2142 194.863 70.2142C194.866 70.2142 194.868 70.2142 194.87 70.2142C194.872 70.2142 194.875 70.2142 194.877 70.2142C194.879 70.2142 194.881 70.2142 194.884 70.2142C194.886 70.2142 194.888 70.2142 194.89 70.2142C194.892 70.2142 194.895 70.2142 194.897 70.2142C194.899 70.2142 194.901 70.2142 194.903 70.2142C194.906 70.2142 194.908 70.2142 194.91 70.2142C194.912 70.2142 194.914 70.2142 194.917 70.2142C194.919 70.2142 194.921 70.2142 194.923 70.2142C194.925 70.2142 194.927 70.2142 194.93 70.2142C194.932 70.2142 194.934 70.2142 194.936 70.2142C194.938 70.2142 194.94 70.2142 194.942 70.2142C194.945 70.2142 194.947 70.2142 194.949 70.2142C194.951 70.2142 194.953 70.2142 194.955 70.2142C194.957 70.2142 194.959 70.2142 194.962 70.2142C194.964 70.2142 194.966 70.2142 194.968 70.2142C194.97 70.2142 194.972 70.2142 194.974 70.2142C194.976 70.2142 194.978 70.2142 194.98 70.2142C194.982 70.2142 194.984 70.2142 194.987 70.2142C194.989 70.2142 194.991 70.2142 194.993 70.2142C194.995 70.2142 194.997 70.2142 194.999 70.2142C195.001 70.2142 195.003 70.2142 195.005 70.2142C195.007 70.2142 195.009 70.2142 195.011 70.2142C195.013 70.2142 195.015 70.2142 195.017 70.2142C195.019 70.2142 195.021 70.2142 195.023 70.2142C195.025 70.2142 195.027 70.2142 195.029 70.2142C195.031 70.2142 195.033 70.2142 195.035 70.2142C195.037 70.2142 195.039 70.2142 195.041 70.2142C195.043 70.2142 195.045 70.2142 195.047 70.2142C195.049 70.2142 195.051 70.2142 195.053 70.2142C195.055 70.2142 195.056 70.2142 195.058 70.2142C195.06 70.2142 195.062 70.2142 195.064 70.2142C195.066 70.2142 195.068 70.2142 195.07 70.2142C195.072 70.2142 195.074 70.2142 195.076 70.2142C195.077 70.2142 195.079 70.2142 195.081 70.2142C195.083 70.2142 195.085 70.2142 195.087 70.2142C195.089 70.2142 195.091 70.2142 195.093 70.2142C195.094 70.2142 195.096 70.2142 195.098 70.2142C195.1 70.2142 195.102 70.2142 195.104 70.2142C195.105 70.2142 195.107 70.2142 195.109 70.2142C195.111 70.2142 195.113 70.2142 195.115 70.2142C195.116 70.2142 195.118 70.2142 195.12 70.2142C195.122 70.2142 195.124 70.2142 195.126 70.2142C195.127 70.2142 195.129 70.2142 195.131 70.2142C195.133 70.2142 195.134 70.2142 195.136 70.2142C195.138 70.2142 195.14 70.2142 195.142 70.2142C195.143 70.2142 195.145 70.2142 195.147 70.2142C195.149 70.2142 195.15 70.2142 195.152 70.2142C195.154 70.2142 195.156 70.2142 195.157 70.2142C195.159 70.2142 195.161 70.2142 195.162 70.2142C195.164 70.2142 195.166 70.2142 195.168 70.2142C195.169 70.2142 195.171 70.2142 195.173 70.2142C195.174 70.2142 195.176 70.2142 195.178 70.2142C195.18 70.2142 195.181 70.2142 195.183 70.2142C195.185 70.2142 195.186 70.2142 195.188 70.2142C195.19 70.2142 195.191 70.2142 195.193 70.2142C195.195 70.2142 195.196 70.2142 195.198 70.2142C195.2 70.2142 195.201 70.2142 195.203 70.2142C195.204 70.2142 195.206 70.2142 195.208 70.2142C195.209 70.2142 195.211 70.2142 195.213 70.2142C195.214 70.2142 195.216 70.2142 195.217 70.2142C195.219 70.2142 195.221 70.2142 195.222 70.2142C195.224 70.2142 195.225 70.2142 195.227 70.2142C195.228 70.2142 195.23 70.2142 195.232 70.2142C195.233 70.2142 195.235 70.2142 195.236 70.2142C195.238 70.2142 195.239 70.2142 195.241 70.2142C195.243 70.2142 195.244 70.2142 195.246 70.2142C195.247 70.2142 195.249 70.2142 195.25 70.2142C195.252 70.2142 195.253 70.2142 195.255 70.2142C195.256 70.2142 195.258 70.2142 195.259 70.2142C195.261 70.2142 195.262 70.2142 195.264 70.2142C195.265 70.2142 195.267 70.2142 195.268 70.2142C195.27 70.2142 195.271 70.2142 195.273 70.2142C195.274 70.2142 195.276 70.2142 195.277 70.2142C195.278 70.2142 195.28 70.2142 195.281 70.2142C195.283 70.2142 195.284 70.2142 195.286 70.2142C195.287 70.2142 195.289 70.2142 195.29 70.2142C195.291 70.2142 195.293 70.2142 195.294 70.2142C195.296 70.2142 195.297 70.2142 195.298 70.2142C195.3 70.2142 195.301 70.2142 195.303 70.2142C195.304 70.2142 195.305 70.2142 195.307 70.2142C195.308 70.2142 195.31 70.2142 195.311 70.2142C195.312 70.2142 195.314 70.2142 195.315 70.2142C195.316 70.2142 195.318 70.2142 195.319 70.2142C195.32 70.2142 195.322 70.2142 195.323 70.2142C195.324 70.2142 195.326 70.2142 195.327 70.2142C195.328 70.2142 195.33 70.2142 195.331 70.2142C195.332 70.2142 195.334 70.2142 195.335 70.2142V69.2142C195.334 69.2142 195.332 69.2142 195.331 69.2142C195.33 69.2142 195.328 69.2142 195.327 69.2142C195.326 69.2142 195.324 69.2142 195.323 69.2142C195.322 69.2142 195.32 69.2142 195.319 69.2142C195.318 69.2142 195.316 69.2142 195.315 69.2142C195.314 69.2142 195.312 69.2142 195.311 69.2142C195.31 69.2142 195.308 69.2142 195.307 69.2142C195.305 69.2142 195.304 69.2142 195.303 69.2142C195.301 69.2142 195.3 69.2142 195.298 69.2142C195.297 69.2142 195.296 69.2142 195.294 69.2142C195.293 69.2142 195.291 69.2142 195.29 69.2142C195.289 69.2142 195.287 69.2142 195.286 69.2142C195.284 69.2142 195.283 69.2142 195.281 69.2142C195.28 69.2142 195.278 69.2142 195.277 69.2142C195.276 69.2142 195.274 69.2142 195.273 69.2142C195.271 69.2142 195.27 69.2142 195.268 69.2142C195.267 69.2142 195.265 69.2142 195.264 69.2142C195.262 69.2142 195.261 69.2142 195.259 69.2142C195.258 69.2142 195.256 69.2142 195.255 69.2142C195.253 69.2142 195.252 69.2142 195.25 69.2142C195.249 69.2142 195.247 69.2142 195.246 69.2142C195.244 69.2142 195.243 69.2142 195.241 69.2142C195.239 69.2142 195.238 69.2142 195.236 69.2142C195.235 69.2142 195.233 69.2142 195.232 69.2142C195.23 69.2142 195.228 69.2142 195.227 69.2142C195.225 69.2142 195.224 69.2142 195.222 69.2142C195.221 69.2142 195.219 69.2142 195.217 69.2142C195.216 69.2142 195.214 69.2142 195.213 69.2142C195.211 69.2142 195.209 69.2142 195.208 69.2142C195.206 69.2142 195.204 69.2142 195.203 69.2142C195.201 69.2142 195.2 69.2142 195.198 69.2142C195.196 69.2142 195.195 69.2142 195.193 69.2142C195.191 69.2142 195.19 69.2142 195.188 69.2142C195.186 69.2142 195.185 69.2142 195.183 69.2142C195.181 69.2142 195.18 69.2142 195.178 69.2142C195.176 69.2142 195.174 69.2142 195.173 69.2142C195.171 69.2142 195.169 69.2142 195.168 69.2142C195.166 69.2142 195.164 69.2142 195.162 69.2142C195.161 69.2142 195.159 69.2142 195.157 69.2142C195.156 69.2142 195.154 69.2142 195.152 69.2142C195.15 69.2142 195.149 69.2142 195.147 69.2142C195.145 69.2142 195.143 69.2142 195.142 69.2142C195.14 69.2142 195.138 69.2142 195.136 69.2142C195.134 69.2142 195.133 69.2142 195.131 69.2142C195.129 69.2142 195.127 69.2142 195.126 69.2142C195.124 69.2142 195.122 69.2142 195.12 69.2142C195.118 69.2142 195.116 69.2142 195.115 69.2142C195.113 69.2142 195.111 69.2142 195.109 69.2142C195.107 69.2142 195.105 69.2142 195.104 69.2142C195.102 69.2142 195.1 69.2142 195.098 69.2142C195.096 69.2142 195.094 69.2142 195.093 69.2142C195.091 69.2142 195.089 69.2142 195.087 69.2142C195.085 69.2142 195.083 69.2142 195.081 69.2142C195.079 69.2142 195.077 69.2142 195.076 69.2142C195.074 69.2142 195.072 69.2142 195.07 69.2142C195.068 69.2142 195.066 69.2142 195.064 69.2142C195.062 69.2142 195.06 69.2142 195.058 69.2142C195.056 69.2142 195.055 69.2142 195.053 69.2142C195.051 69.2142 195.049 69.2142 195.047 69.2142C195.045 69.2142 195.043 69.2142 195.041 69.2142C195.039 69.2142 195.037 69.2142 195.035 69.2142C195.033 69.2142 195.031 69.2142 195.029 69.2142C195.027 69.2142 195.025 69.2142 195.023 69.2142C195.021 69.2142 195.019 69.2142 195.017 69.2142C195.015 69.2142 195.013 69.2142 195.011 69.2142C195.009 69.2142 195.007 69.2142 195.005 69.2142C195.003 69.2142 195.001 69.2142 194.999 69.2142C194.997 69.2142 194.995 69.2142 194.993 69.2142C194.991 69.2142 194.989 69.2142 194.987 69.2142C194.984 69.2142 194.982 69.2142 194.98 69.2142C194.978 69.2142 194.976 69.2142 194.974 69.2142C194.972 69.2142 194.97 69.2142 194.968 69.2142C194.966 69.2142 194.964 69.2142 194.962 69.2142C194.959 69.2142 194.957 69.2142 194.955 69.2142C194.953 69.2142 194.951 69.2142 194.949 69.2142C194.947 69.2142 194.945 69.2142 194.942 69.2142C194.94 69.2142 194.938 69.2142 194.936 69.2142C194.934 69.2142 194.932 69.2142 194.93 69.2142C194.927 69.2142 194.925 69.2142 194.923 69.2142C194.921 69.2142 194.919 69.2142 194.917 69.2142C194.914 69.2142 194.912 69.2142 194.91 69.2142C194.908 69.2142 194.906 69.2142 194.903 69.2142C194.901 69.2142 194.899 69.2142 194.897 69.2142C194.895 69.2142 194.892 69.2142 194.89 69.2142C194.888 69.2142 194.886 69.2142 194.884 69.2142C194.881 69.2142 194.879 69.2142 194.877 69.2142C194.875 69.2142 194.872 69.2142 194.87 69.2142C194.868 69.2142 194.866 69.2142 194.863 69.2142C194.861 69.2142 194.859 69.2142 194.856 69.2142C194.854 69.2142 194.852 69.2142 194.85 69.2142C194.847 69.2142 194.845 69.2142 194.843 69.2142C194.84 69.2142 194.838 69.2142 194.836 69.2142C194.834 69.2142 194.831 69.2142 194.829 69.2142C194.827 69.2142 194.824 69.2142 194.822 69.2142C194.82 69.2142 194.817 69.2142 194.815 69.2142C194.813 69.2142 194.81 69.2142 194.808 69.2142C194.806 69.2142 194.803 69.2142 194.801 69.2142C194.799 69.2142 194.796 69.2142 194.794 69.2142C194.791 69.2142 194.789 69.2142 194.787 69.2142C194.784 69.2142 194.782 69.2142 194.78 69.2142C194.777 69.2142 194.775 69.2142 194.772 69.2142C194.77 69.2142 194.768 69.2142 194.765 69.2142C194.763 69.2142 194.76 69.2142 194.758 69.2142C194.755 69.2142 194.753 69.2142 194.751 69.2142C194.748 69.2142 194.746 69.2142 194.743 69.2142C194.741 69.2142 194.738 69.2142 194.736 69.2142C194.733 69.2142 194.731 69.2142 194.729 69.2142C194.726 69.2142 194.724 69.2142 194.721 69.2142C194.719 69.2142 194.716 69.2142 194.714 69.2142C194.711 69.2142 194.709 69.2142 194.706 69.2142C194.704 69.2142 194.701 69.2142 194.699 69.2142C194.696 69.2142 194.694 69.2142 194.691 69.2142C194.689 69.2142 194.686 69.2142 194.684 69.2142C194.681 69.2142 194.679 69.2142 194.676 69.2142C194.673 69.2142 194.671 69.2142 194.668 69.2142C194.666 69.2142 194.663 69.2142 194.661 69.2142C194.658 69.2142 194.656 69.2142 194.653 69.2142C194.65 69.2142 194.648 69.2142 194.645 69.2142C194.643 69.2142 194.64 69.2142 194.637 69.2142C194.635 69.2142 194.632 69.2142 194.63 69.2142C194.627 69.2142 194.624 69.2142 194.622 69.2142C194.619 69.2142 194.617 69.2142 194.614 69.2142C194.611 69.2142 194.609 69.2142 194.606 69.2142C194.604 69.2142 194.601 69.2142 194.598 69.2142C194.596 69.2142 194.593 69.2142 194.59 69.2142C194.588 69.2142 194.585 69.2142 194.582 69.2142C194.58 69.2142 194.577 69.2142 194.574 69.2142C194.572 69.2142 194.569 69.2142 194.566 69.2142C194.564 69.2142 194.561 69.2142 194.558 69.2142C194.555 69.2142 194.553 69.2142 194.55 69.2142C194.547 69.2142 194.545 69.2142 194.542 69.2142C194.539 69.2142 194.537 69.2142 194.534 69.2142C194.531 69.2142 194.528 69.2142 194.526 69.2142C194.523 69.2142 194.52 69.2142 194.517 69.2142C194.515 69.2142 194.512 69.2142 194.509 69.2142C194.506 69.2142 194.504 69.2142 194.501 69.2142C194.498 69.2142 194.495 69.2142 194.492 69.2142C194.49 69.2142 194.487 69.2142 194.484 69.2142C194.481 69.2142 194.479 69.2142 194.476 69.2142C194.473 69.2142 194.47 69.2142 194.467 69.2142C194.465 69.2142 194.462 69.2142 194.459 69.2142C194.456 69.2142 194.453 69.2142 194.45 69.2142C194.448 69.2142 194.445 69.2142 194.442 69.2142C194.439 69.2142 194.436 69.2142 194.433 69.2142C194.431 69.2142 194.428 69.2142 194.425 69.2142C194.422 69.2142 194.419 69.2142 194.416 69.2142C194.413 69.2142 194.41 69.2142 194.408 69.2142C194.405 69.2142 194.402 69.2142 194.399 69.2142C194.396 69.2142 194.393 69.2142 194.39 69.2142C194.387 69.2142 194.384 69.2142 194.381 69.2142C194.379 69.2142 194.376 69.2142 194.373 69.2142C194.37 69.2142 194.367 69.2142 194.364 69.2142C194.361 69.2142 194.358 69.2142 194.355 69.2142C194.352 69.2142 194.349 69.2142 194.346 69.2142C194.343 69.2142 194.34 69.2142 194.337 69.2142C194.334 69.2142 194.331 69.2142 194.328 69.2142C194.325 69.2142 194.323 69.2142 194.32 69.2142C194.317 69.2142 194.314 69.2142 194.311 69.2142C194.308 69.2142 194.305 69.2142 194.302 69.2142C194.299 69.2142 194.296 69.2142 194.293 69.2142C194.29 69.2142 194.286 69.2142 194.283 69.2142C194.28 69.2142 194.277 69.2142 194.274 69.2142C194.271 69.2142 194.268 69.2142 194.265 69.2142C194.262 69.2142 194.259 69.2142 194.256 69.2142C194.253 69.2142 194.25 69.2142 194.247 69.2142C194.244 69.2142 194.241 69.2142 194.238 69.2142C194.235 69.2142 194.232 69.2142 194.228 69.2142C194.225 69.2142 194.222 69.2142 194.219 69.2142C194.216 69.2142 194.213 69.2142 194.21 69.2142C194.207 69.2142 194.204 69.2142 194.201 69.2142C194.197 69.2142 194.194 69.2142 194.191 69.2142C194.188 69.2142 194.185 69.2142 194.182 69.2142C194.179 69.2142 194.175 69.2142 194.172 69.2142C194.169 69.2142 194.166 69.2142 194.163 69.2142C194.16 69.2142 194.157 69.2142 194.153 69.2142C194.15 69.2142 194.147 69.2142 194.144 69.2142C194.141 69.2142 194.137 69.2142 194.134 69.2142C194.131 69.2142 194.128 69.2142 194.125 69.2142C194.121 69.2142 194.118 69.2142 194.115 69.2142C194.112 69.2142 194.109 69.2142 194.105 69.2142C194.102 69.2142 194.099 69.2142 194.096 69.2142C194.093 69.2142 194.089 69.2142 194.086 69.2142C194.083 69.2142 194.08 69.2142 194.076 69.2142C194.073 69.2142 194.07 69.2142 194.067 69.2142C194.063 69.2142 194.06 69.2142 194.057 69.2142C194.053 69.2142 194.05 69.2142 194.047 69.2142C194.044 69.2142 194.04 69.2142 194.037 69.2142C194.034 69.2142 194.03 69.2142 194.027 69.2142C194.024 69.2142 194.021 69.2142 194.017 69.2142C194.014 69.2142 194.011 69.2142 194.007 69.2142C194.004 69.2142 194.001 69.2142 193.997 69.2142C193.994 69.2142 193.991 69.2142 193.987 69.2142C193.984 69.2142 193.981 69.2142 193.977 69.2142C193.974 69.2142 193.971 69.2142 193.967 69.2142C193.964 69.2142 193.961 69.2142 193.957 69.2142C193.954 69.2142 193.95 69.2142 193.947 69.2142C193.944 69.2142 193.94 69.2142 193.937 69.2142C193.933 69.2142 193.93 69.2142 193.927 69.2142C193.923 69.2142 193.92 69.2142 193.916 69.2142C193.913 69.2142 193.91 69.2142 193.906 69.2142C193.903 69.2142 193.899 69.2142 193.896 69.2142C193.893 69.2142 193.889 69.2142 193.886 69.2142C193.882 69.2142 193.879 69.2142 193.875 69.2142C193.872 69.2142 193.868 69.2142 193.865 69.2142C193.861 69.2142 193.858 69.2142 193.855 69.2142C193.851 69.2142 193.848 69.2142 193.844 69.2142C193.841 69.2142 193.837 69.2142 193.834 69.2142C193.83 69.2142 193.827 69.2142 193.823 69.2142C193.82 69.2142 193.816 69.2142 193.813 69.2142C193.809 69.2142 193.806 69.2142 193.802 69.2142C193.799 69.2142 193.795 69.2142 193.792 69.2142C193.788 69.2142 193.784 69.2142 193.781 69.2142C193.777 69.2142 193.774 69.2142 193.77 69.2142C193.767 69.2142 193.763 69.2142 193.76 69.2142C193.756 69.2142 193.752 69.2142 193.749 69.2142C193.745 69.2142 193.742 69.2142 193.738 69.2142C193.735 69.2142 193.731 69.2142 193.727 69.2142C193.724 69.2142 193.72 69.2142 193.717 69.2142C193.713 69.2142 193.709 69.2142 193.706 69.2142C193.702 69.2142 193.699 69.2142 193.695 69.2142C193.691 69.2142 193.688 69.2142 193.684 69.2142C193.68 69.2142 193.677 69.2142 193.673 69.2142C193.67 69.2142 193.666 69.2142 193.662 69.2142C193.659 69.2142 193.655 69.2142 193.651 69.2142C193.648 69.2142 193.644 69.2142 193.64 69.2142C193.637 69.2142 193.633 69.2142 193.629 69.2142C193.626 69.2142 193.622 69.2142 193.618 69.2142C193.615 69.2142 193.611 69.2142 193.607 69.2142C193.603 69.2142 193.6 69.2142 193.596 69.2142C193.592 69.2142 193.589 69.2142 193.585 69.2142C193.581 69.2142 193.577 69.2142 193.574 69.2142C193.57 69.2142 193.566 69.2142 193.563 69.2142C193.559 69.2142 193.555 69.2142 193.551 69.2142C193.548 69.2142 193.544 69.2142 193.54 69.2142C193.536 69.2142 193.533 69.2142 193.529 69.2142C193.525 69.2142 193.521 69.2142 193.517 69.2142C193.514 69.2142 193.51 69.2142 193.506 69.2142C193.502 69.2142 193.499 69.2142 193.495 69.2142C193.491 69.2142 193.487 69.2142 193.483 69.2142C193.48 69.2142 193.476 69.2142 193.472 69.2142C193.468 69.2142 193.464 69.2142 193.46 69.2142C193.457 69.2142 193.453 69.2142 193.449 69.2142C193.445 69.2142 193.441 69.2142 193.437 69.2142C193.434 69.2142 193.43 69.2142 193.426 69.2142C193.422 69.2142 193.418 69.2142 193.414 69.2142C193.41 69.2142 193.407 69.2142 193.403 69.2142C193.399 69.2142 193.395 69.2142 193.391 69.2142C193.387 69.2142 193.383 69.2142 193.379 69.2142C193.375 69.2142 193.372 69.2142 193.368 69.2142C193.364 69.2142 193.36 69.2142 193.356 69.2142C193.352 69.2142 193.348 69.2142 193.344 69.2142C193.34 69.2142 193.336 69.2142 193.332 69.2142C193.328 69.2142 193.325 69.2142 193.321 69.2142C193.317 69.2142 193.313 69.2142 193.309 69.2142C193.305 69.2142 193.301 69.2142 193.297 69.2142C193.293 69.2142 193.289 69.2142 193.285 69.2142C193.281 69.2142 193.277 69.2142 193.273 69.2142C193.269 69.2142 193.265 69.2142 193.261 69.2142C193.257 69.2142 193.253 69.2142 193.249 69.2142C193.245 69.2142 193.241 69.2142 193.237 69.2142C193.233 69.2142 193.229 69.2142 193.225 69.2142C193.221 69.2142 193.217 69.2142 193.213 69.2142C193.209 69.2142 193.205 69.2142 193.201 69.2142C193.197 69.2142 193.193 69.2142 193.189 69.2142C193.185 69.2142 193.181 69.2142 193.177 69.2142C193.173 69.2142 193.168 69.2142 193.164 69.2142C193.16 69.2142 193.156 69.2142 193.152 69.2142C193.148 69.2142 193.144 69.2142 193.14 69.2142C193.136 69.2142 193.132 69.2142 193.128 69.2142C193.124 69.2142 193.119 69.2142 193.115 69.2142C193.111 69.2142 193.107 69.2142 193.103 69.2142C193.099 69.2142 193.095 69.2142 193.091 69.2142C193.087 69.2142 193.082 69.2142 193.078 69.2142C193.074 69.2142 193.07 69.2142 193.066 69.2142C193.062 69.2142 193.058 69.2142 193.053 69.2142C193.049 69.2142 193.045 69.2142 193.041 69.2142C193.037 69.2142 193.033 69.2142 193.028 69.2142C193.024 69.2142 193.02 69.2142 193.016 69.2142C193.012 69.2142 193.008 69.2142 193.003 69.2142C192.999 69.2142 192.995 69.2142 192.991 69.2142C192.987 69.2142 192.982 69.2142 192.978 69.2142C192.974 69.2142 192.97 69.2142 192.965 69.2142C192.961 69.2142 192.957 69.2142 192.953 69.2142C192.949 69.2142 192.944 69.2142 192.94 69.2142C192.936 69.2142 192.932 69.2142 192.927 69.2142C192.923 69.2142 192.919 69.2142 192.915 69.2142C192.91 69.2142 192.906 69.2142 192.902 69.2142C192.898 69.2142 192.893 69.2142 192.889 69.2142C192.885 69.2142 192.88 69.2142 192.876 69.2142C192.872 69.2142 192.868 69.2142 192.863 69.2142C192.859 69.2142 192.855 69.2142 192.85 69.2142C192.846 69.2142 192.842 69.2142 192.837 69.2142C192.833 69.2142 192.829 69.2142 192.824 69.2142C192.82 69.2142 192.816 69.2142 192.812 69.2142C192.807 69.2142 192.803 69.2142 192.798 69.2142C192.794 69.2142 192.79 69.2142 192.785 69.2142C192.781 69.2142 192.777 69.2142 192.772 69.2142C192.768 69.2142 192.764 69.2142 192.759 69.2142C192.755 69.2142 192.751 69.2142 192.746 69.2142C192.742 69.2142 192.737 69.2142 192.733 69.2142C192.729 69.2142 192.724 69.2142 192.72 69.2142C192.715 69.2142 192.711 69.2142 192.707 69.2142C192.702 69.2142 192.698 69.2142 192.693 69.2142C192.689 69.2142 192.684 69.2142 192.68 69.2142C192.676 69.2142 192.671 69.2142 192.667 69.2142C192.662 69.2142 192.658 69.2142 192.653 69.2142C192.649 69.2142 192.645 69.2142 192.64 69.2142C192.636 69.2142 192.631 69.2142 192.627 69.2142C192.622 69.2142 192.618 69.2142 192.613 69.2142C192.609 69.2142 192.604 69.2142 192.6 69.2142C192.595 69.2142 192.591 69.2142 192.586 69.2142C192.582 69.2142 192.577 69.2142 192.573 69.2142C192.568 69.2142 192.564 69.2142 192.559 69.2142C192.555 69.2142 192.55 69.2142 192.546 69.2142C192.541 69.2142 192.537 69.2142 192.532 69.2142C192.528 69.2142 192.523 69.2142 192.519 69.2142C192.514 69.2142 192.51 69.2142 192.505 69.2142C192.5 69.2142 192.496 69.2142 192.491 69.2142C192.487 69.2142 192.482 69.2142 192.478 69.2142C192.473 69.2142 192.468 69.2142 192.464 69.2142C192.459 69.2142 192.455 69.2142 192.45 69.2142C192.446 69.2142 192.441 69.2142 192.436 69.2142C192.432 69.2142 192.427 69.2142 192.423 69.2142C192.418 69.2142 192.413 69.2142 192.409 69.2142C192.404 69.2142 192.4 69.2142 192.395 69.2142C192.39 69.2142 192.386 69.2142 192.381 69.2142C192.376 69.2142 192.372 69.2142 192.367 69.2142C192.362 69.2142 192.358 69.2142 192.353 69.2142C192.349 69.2142 192.344 69.2142 192.339 69.2142C192.335 69.2142 192.33 69.2142 192.325 69.2142C192.321 69.2142 192.316 69.2142 192.311 69.2142C192.306 69.2142 192.302 69.2142 192.297 69.2142C192.292 69.2142 192.288 69.2142 192.283 69.2142C192.278 69.2142 192.274 69.2142 192.269 69.2142C192.264 69.2142 192.26 69.2142 192.255 69.2142C192.25 69.2142 192.245 69.2142 192.241 69.2142C192.236 69.2142 192.231 69.2142 192.226 69.2142C192.222 69.2142 192.217 69.2142 192.212 69.2142C192.207 69.2142 192.203 69.2142 192.198 69.2142C192.193 69.2142 192.188 69.2142 192.184 69.2142C192.179 69.2142 192.174 69.2142 192.169 69.2142C192.165 69.2142 192.16 69.2142 192.155 69.2142C192.15 69.2142 192.146 69.2142 192.141 69.2142C192.136 69.2142 192.131 69.2142 192.126 69.2142C192.122 69.2142 192.117 69.2142 192.112 69.2142C192.107 69.2142 192.102 69.2142 192.097 69.2142C192.093 69.2142 192.088 69.2142 192.083 69.2142C192.078 69.2142 192.073 69.2142 192.069 69.2142C192.064 69.2142 192.059 69.2142 192.054 69.2142C192.049 69.2142 192.044 69.2142 192.039 69.2142C192.035 69.2142 192.03 69.2142 192.025 69.2142C192.02 69.2142 192.015 69.2142 192.01 69.2142C192.005 69.2142 192.001 69.2142 191.996 69.2142C191.991 69.2142 191.986 69.2142 191.981 69.2142C191.976 69.2142 191.971 69.2142 191.966 69.2142C191.961 69.2142 191.957 69.2142 191.952 69.2142C191.947 69.2142 191.942 69.2142 191.937 69.2142C191.932 69.2142 191.927 69.2142 191.922 69.2142C191.917 69.2142 191.912 69.2142 191.907 69.2142C191.902 69.2142 191.897 69.2142 191.893 69.2142C191.888 69.2142 191.883 69.2142 191.878 69.2142C191.873 69.2142 191.868 69.2142 191.863 69.2142C191.858 69.2142 191.853 69.2142 191.848 69.2142C191.843 69.2142 191.838 69.2142 191.833 69.2142C191.828 69.2142 191.823 69.2142 191.818 69.2142C191.813 69.2142 191.808 69.2142 191.803 69.2142C191.798 69.2142 191.793 69.2142 191.788 69.2142C191.783 69.2142 191.778 69.2142 191.773 69.2142C191.768 69.2142 191.763 69.2142 191.758 69.2142C191.753 69.2142 191.748 69.2142 191.743 69.2142C191.738 69.2142 191.733 69.2142 191.728 69.2142C191.723 69.2142 191.718 69.2142 191.713 69.2142C191.708 69.2142 191.702 69.2142 191.697 69.2142C191.692 69.2142 191.687 69.2142 191.682 69.2142C191.677 69.2142 191.672 69.2142 191.667 69.2142C191.662 69.2142 191.657 69.2142 191.652 69.2142C191.647 69.2142 191.642 69.2142 191.636 69.2142C191.631 69.2142 191.626 69.2142 191.621 69.2142C191.616 69.2142 191.611 69.2142 191.606 69.2142C191.601 69.2142 191.596 69.2142 191.59 69.2142C191.585 69.2142 191.58 69.2142 191.575 69.2142C191.57 69.2142 191.565 69.2142 191.56 69.2142C191.555 69.2142 191.549 69.2142 191.544 69.2142C191.539 69.2142 191.534 69.2142 191.529 69.2142C191.524 69.2142 191.518 69.2142 191.513 69.2142C191.508 69.2142 191.503 69.2142 191.498 69.2142C191.493 69.2142 191.487 69.2142 191.482 69.2142C191.477 69.2142 191.472 69.2142 191.467 69.2142C191.461 69.2142 191.456 69.2142 191.451 69.2142C191.446 69.2142 191.441 69.2142 191.435 69.2142C191.43 69.2142 191.425 69.2142 191.42 69.2142C191.415 69.2142 191.409 69.2142 191.404 69.2142C191.399 69.2142 191.394 69.2142 191.388 69.2142C191.383 69.2142 191.378 69.2142 191.373 69.2142C191.367 69.2142 191.362 69.2142 191.357 69.2142C191.352 69.2142 191.346 69.2142 191.341 69.2142C191.336 69.2142 191.331 69.2142 191.325 69.2142C191.32 69.2142 191.315 69.2142 191.309 69.2142C191.304 69.2142 191.299 69.2142 191.294 69.2142C191.288 69.2142 191.283 69.2142 191.278 69.2142C191.272 69.2142 191.267 69.2142 191.262 69.2142C191.256 69.2142 191.251 69.2142 191.246 69.2142C191.241 69.2142 191.235 69.2142 191.23 69.2142C191.225 69.2142 191.219 69.2142 191.214 69.2142C191.209 69.2142 191.203 69.2142 191.198 69.2142C191.193 69.2142 191.187 69.2142 191.182 69.2142C191.176 69.2142 191.171 69.2142 191.166 69.2142C191.16 69.2142 191.155 69.2142 191.15 69.2142C191.144 69.2142 191.139 69.2142 191.133 69.2142C191.128 69.2142 191.123 69.2142 191.117 69.2142C191.112 69.2142 191.107 69.2142 191.101 69.2142C191.096 69.2142 191.09 69.2142 191.085 69.2142C191.08 69.2142 191.074 69.2142 191.069 69.2142C191.063 69.2142 191.058 69.2142 191.052 69.2142C191.047 69.2142 191.042 69.2142 191.036 69.2142C191.031 69.2142 191.025 69.2142 191.02 69.2142C191.014 69.2142 191.009 69.2142 191.004 69.2142C190.998 69.2142 190.993 69.2142 190.987 69.2142C190.982 69.2142 190.976 69.2142 190.971 69.2142C190.965 69.2142 190.96 69.2142 190.954 69.2142C190.949 69.2142 190.943 69.2142 190.938 69.2142C190.932 69.2142 190.927 69.2142 190.921 69.2142C190.916 69.2142 190.91 69.2142 190.905 69.2142C190.899 69.2142 190.894 69.2142 190.888 69.2142C190.883 69.2142 190.877 69.2142 190.872 69.2142C190.866 69.2142 190.861 69.2142 190.855 69.2142C190.85 69.2142 190.844 69.2142 190.839 69.2142C190.833 69.2142 190.828 69.2142 190.822 69.2142C190.817 69.2142 190.811 69.2142 190.805 69.2142C190.8 69.2142 190.794 69.2142 190.789 69.2142C190.783 69.2142 190.778 69.2142 190.772 69.2142C190.767 69.2142 190.761 69.2142 190.755 69.2142C190.75 69.2142 190.744 69.2142 190.739 69.2142C190.733 69.2142 190.727 69.2142 190.722 69.2142C190.716 69.2142 190.711 69.2142 190.705 69.2142C190.699 69.2142 190.694 69.2142 190.688 69.2142C190.683 69.2142 190.677 69.2142 190.671 69.2142C190.666 69.2142 190.66 69.2142 190.654 69.2142C190.649 69.2142 190.643 69.2142 190.638 69.2142C190.632 69.2142 190.626 69.2142 190.621 69.2142C190.615 69.2142 190.609 69.2142 190.604 69.2142C190.598 69.2142 190.592 69.2142 190.587 69.2142C190.581 69.2142 190.575 69.2142 190.57 69.2142C190.564 69.2142 190.558 69.2142 190.553 69.2142C190.547 69.2142 190.541 69.2142 190.536 69.2142C190.53 69.2142 190.524 69.2142 190.518 69.2142C190.513 69.2142 190.507 69.2142 190.501 69.2142C190.496 69.2142 190.49 69.2142 190.484 69.2142C190.479 69.2142 190.473 69.2142 190.467 69.2142C190.461 69.2142 190.456 69.2142 190.45 69.2142C190.444 69.2142 190.438 69.2142 190.433 69.2142C190.427 69.2142 190.421 69.2142 190.415 69.2142C190.41 69.2142 190.404 69.2142 190.398 69.2142C190.392 69.2142 190.387 69.2142 190.381 69.2142C190.375 69.2142 190.369 69.2142 190.364 69.2142C190.358 69.2142 190.352 69.2142 190.346 69.2142C190.34 69.2142 190.335 69.2142 190.329 69.2142C190.323 69.2142 190.317 69.2142 190.311 69.2142C190.306 69.2142 190.3 69.2142 190.294 69.2142C190.288 69.2142 190.282 69.2142 190.277 69.2142C190.271 69.2142 190.265 69.2142 190.259 69.2142C190.253 69.2142 190.247 69.2142 190.242 69.2142C190.236 69.2142 190.23 69.2142 190.224 69.2142C190.218 69.2142 190.212 69.2142 190.207 69.2142C190.201 69.2142 190.195 69.2142 190.189 69.2142C190.183 69.2142 190.177 69.2142 190.171 69.2142C190.166 69.2142 190.16 69.2142 190.154 69.2142C190.148 69.2142 190.142 69.2142 190.136 69.2142C190.13 69.2142 190.124 69.2142 190.118 69.2142C190.113 69.2142 190.107 69.2142 190.101 69.2142C190.095 69.2142 190.089 69.2142 190.083 69.2142C190.077 69.2142 190.071 69.2142 190.065 69.2142C190.059 69.2142 190.053 69.2142 190.048 69.2142C190.042 69.2142 190.036 69.2142 190.03 69.2142C190.024 69.2142 190.018 69.2142 190.012 69.2142C190.006 69.2142 190 69.2142 189.994 69.2142C189.988 69.2142 189.982 69.2142 189.976 69.2142C189.97 69.2142 189.964 69.2142 189.958 69.2142C189.952 69.2142 189.946 69.2142 189.94 69.2142C189.934 69.2142 189.928 69.2142 189.922 69.2142C189.916 69.2142 189.91 69.2142 189.904 69.2142C189.898 69.2142 189.892 69.2142 189.886 69.2142C189.88 69.2142 189.874 69.2142 189.868 69.2142C189.862 69.2142 189.856 69.2142 189.85 69.2142C189.844 69.2142 189.838 69.2142 189.832 69.2142C189.826 69.2142 189.82 69.2142 189.814 69.2142C189.808 69.2142 189.802 69.2142 189.796 69.2142C189.79 69.2142 189.784 69.2142 189.778 69.2142C189.772 69.2142 189.766 69.2142 189.76 69.2142C189.754 69.2142 189.748 69.2142 189.742 69.2142C189.735 69.2142 189.729 69.2142 189.723 69.2142C189.717 69.2142 189.711 69.2142 189.705 69.2142C189.699 69.2142 189.693 69.2142 189.687 69.2142C189.681 69.2142 189.675 69.2142 189.669 69.2142C189.662 69.2142 189.656 69.2142 189.65 69.2142C189.644 69.2142 189.638 69.2142 189.632 69.2142C189.626 69.2142 189.62 69.2142 189.613 69.2142C189.607 69.2142 189.601 69.2142 189.595 69.2142C189.589 69.2142 189.583 69.2142 189.577 69.2142C189.571 69.2142 189.564 69.2142 189.558 69.2142C189.552 69.2142 189.546 69.2142 189.54 69.2142C189.534 69.2142 189.527 69.2142 189.521 69.2142C189.515 69.2142 189.509 69.2142 189.503 69.2142C189.497 69.2142 189.49 69.2142 189.484 69.2142C189.478 69.2142 189.472 69.2142 189.466 69.2142C189.459 69.2142 189.453 69.2142 189.447 69.2142C189.441 69.2142 189.435 69.2142 189.428 69.2142C189.422 69.2142 189.416 69.2142 189.41 69.2142C189.404 69.2142 189.397 69.2142 189.391 69.2142C189.385 69.2142 189.379 69.2142 189.372 69.2142C189.366 69.2142 189.36 69.2142 189.354 69.2142C189.348 69.2142 189.341 69.2142 189.335 69.2142V70.2142ZM194.844 69.6188C194.255 72.6489 193.724 77.3949 194.049 81.801C194.211 84.0039 194.589 86.1455 195.296 87.9525C196.002 89.7584 197.053 91.2719 198.587 92.1483L199.083 91.2801C197.817 90.5566 196.885 89.27 196.227 87.5884C195.57 85.9079 195.205 83.8745 195.046 81.7274C194.729 77.4335 195.248 72.7795 195.826 69.8096L194.844 69.6188ZM198.587 92.1483C201.985 94.0902 205.056 97.6371 207.281 101.346C209.514 105.068 210.835 108.849 210.835 111.214H211.835C211.835 108.58 210.406 104.611 208.139 100.832C205.864 97.0413 202.685 93.3382 199.083 91.2801L198.587 92.1483ZM210.835 111.214C210.835 116.215 211.321 123.485 218.073 127.64L218.597 126.788C212.349 122.943 211.835 116.214 211.835 111.214H210.835ZM218.073 127.64C220.642 129.221 228.654 135.363 237.664 142.433C246.658 149.489 256.606 157.438 263.021 162.604L263.649 161.825C257.231 156.657 247.279 148.706 238.281 141.646C229.299 134.598 221.228 128.407 218.597 126.788L218.073 127.64ZM262.843 162.123C262.175 165.717 261.272 171.457 260.737 177.004C260.47 179.777 260.293 182.509 260.285 184.905C260.277 187.289 260.434 189.381 260.854 190.852L261.816 190.577C261.436 189.248 261.277 187.273 261.285 184.908C261.293 182.555 261.467 179.856 261.733 177.1C262.264 171.588 263.162 165.878 263.827 162.306L262.843 162.123ZM260.854 190.852C261.846 194.323 263.467 202.423 264.905 210.489C266.344 218.557 267.589 226.532 267.836 229.753L268.834 229.676C268.581 226.397 267.326 218.372 265.89 210.314C264.453 202.256 262.824 194.105 261.816 190.577L260.854 190.852ZM267.836 229.753C267.932 230.991 267.689 233.711 267.242 237.212C266.798 240.69 266.162 244.88 265.491 249.022C264.151 257.304 262.676 265.375 262.344 267.121L263.326 267.308C263.66 265.554 265.136 257.474 266.479 249.182C267.15 245.036 267.788 240.832 268.234 237.338C268.677 233.867 268.938 231.037 268.834 229.676L267.836 229.753ZM189.335 70.2142H195.335V69.2142H189.335V70.2142ZM403.874 314.713L404.374 314.673L404.296 313.676L403.796 313.716L403.874 314.713ZM403.884 314.391C406.849 320.586 407.076 324.376 406.714 327.336C406.528 328.858 406.196 330.118 405.952 331.493C405.713 332.842 405.579 334.218 405.842 335.796L406.828 335.632C406.591 334.211 406.707 332.961 406.937 331.668C407.161 330.401 407.517 329.003 407.706 327.457C408.094 324.283 407.821 320.303 404.786 313.959L403.884 314.391ZM405.842 335.796C405.99 336.683 406.572 337.895 407.423 339.14C408.284 340.4 409.454 341.744 410.835 342.893C413.58 345.178 417.277 346.783 421.032 345.174L420.638 344.255C417.393 345.646 414.1 344.31 411.475 342.125C410.171 341.039 409.061 339.765 408.248 338.576C407.426 337.373 406.94 336.305 406.828 335.632L405.842 335.796ZM404.374 314.673L426.374 312.948L426.296 311.951L404.296 313.676L404.374 314.673ZM426.374 312.948L429.374 312.713L429.296 311.716L426.296 311.951L426.374 312.948ZM432.277 331.98C430.504 328.631 429.141 324.423 428.22 320.695C427.298 316.958 426.835 313.764 426.835 312.449H425.835C425.835 313.889 426.322 317.178 427.25 320.935C428.179 324.701 429.566 328.997 431.393 332.448L432.277 331.98ZM421.021 345.178L421.267 345.08L420.896 344.151L420.649 344.25L421.021 345.178ZM421.267 345.08C423.781 344.075 427.43 342.622 429.998 340.555C431.286 339.518 432.345 338.293 432.834 336.85C433.33 335.387 433.219 333.76 432.277 331.98L431.393 332.448C432.222 334.014 432.285 335.356 431.887 336.529C431.483 337.723 430.581 338.801 429.371 339.776C426.942 341.731 423.443 343.134 420.896 344.151L421.267 345.08ZM421.021 345.178C421.102 345.146 421.184 345.113 421.267 345.08L420.896 344.151C420.813 344.185 420.73 344.217 420.649 344.25L421.021 345.178ZM192.014 61.3174L189.014 63.8309L189.656 64.5975L192.656 62.084L192.014 61.3174ZM192.73 61.3947L184.23 50.4082L183.44 51.0202L191.94 62.0067L192.73 61.3947ZM184.103 50.2924C182.31 49.1513 179.737 47.0422 177.866 44.4468C175.99 41.8454 174.88 38.8458 175.812 35.8633L174.858 35.5651C173.79 38.9826 175.097 42.3163 177.054 45.0316C179.016 47.7529 181.693 49.9438 183.567 51.136L184.103 50.2924ZM175.812 35.8633C177.023 31.99 179.937 28.4633 183.522 26.3974C187.101 24.3349 191.296 23.7538 195.111 25.6614L195.559 24.767C191.374 22.6746 186.819 23.3436 183.023 25.531C179.233 27.7151 176.147 31.4384 174.858 35.5651L175.812 35.8633ZM195.111 25.6614C197.018 26.6147 198.089 28.6683 198.808 30.8092C199.164 31.8705 199.422 32.9154 199.66 33.8202C199.777 34.2683 199.891 34.6863 200.008 35.0451C200.124 35.3981 200.253 35.7263 200.411 35.9792L201.259 35.4492C201.167 35.3021 201.068 35.0677 200.959 34.7341C200.851 34.4064 200.744 34.014 200.627 33.5664C200.394 32.6799 200.126 31.5927 199.756 30.491C199.022 28.3058 197.843 25.9094 195.559 24.767L195.111 25.6614ZM207.514 48.3309L206.014 49.5877L206.656 50.3543L208.156 49.0975L207.514 48.3309ZM206.014 49.5877L192.014 61.3174L192.656 62.084L206.656 50.3543L206.014 49.5877ZM200.411 35.9792C200.996 36.9145 201.449 38.2005 201.845 39.656C202.24 41.1099 202.563 42.6746 202.91 44.1766C203.254 45.6606 203.622 47.0859 204.103 48.1919C204.572 49.2688 205.218 50.2094 206.215 50.4563L206.455 49.4857C205.952 49.361 205.473 48.8337 205.02 47.7928C204.58 46.781 204.229 45.4385 203.885 43.9512C203.545 42.4819 203.211 40.8718 202.81 39.3937C202.408 37.9171 201.924 36.5139 201.259 35.4492L200.411 35.9792Z" fill="black"/>
<path d="M473.792 534.326C464.792 526.326 437.792 552.326 437.792 552.326C437.792 552.326 435.039 518.793 407.292 498.826C399.75 493.399 379.71 484.088 366.792 477.326C365.837 476.826 355.792 468.326 354.792 467.826C353.897 467.378 351.537 466.534 350.792 467.326C338.782 480.073 343.372 482.092 346.76 503.826L376.792 513.326L350.792 518.326C363.132 549.521 399.256 579.93 428.792 582.826C435.788 583.511 439.896 584.191 446.792 582.826C458.445 580.518 470.663 566.045 476.792 552.326L462.292 551.326L477.792 545.326C480.792 543.326 482.792 542.326 473.792 534.326Z" fill="#AAFFFF" stroke="#77AAAA" stroke-linecap="round"/>
<defs>
<clipPath id="clip0_728_13">
<rect width="291" height="273" fill="white" transform="translate(433 65)"/>
</clipPath>
</defs>
</svg>
